<?xml version="1.0" encoding="utf-8"?>
<!-- Generator: Adobe Illustrator 19.0.0, SVG Export Plug-In . SVG Version: 6.00 Build 0)  -->
<svg version="1.1" id="Layer_2" xmlns="http://www.w3.org/2000/svg" xmlns:xlink="http://www.w3.org/1999/xlink" x="0px" y="0px"
	 viewBox="0 0 1576 888.1" style="enable-background:new 0 0 1576 888.1;" xml:space="preserve">
<style type="text/css">
	.st0{fill:#3C2524;}
	.st1{fill:#FFFFFF;}
	.st2{fill:#D3C0B5;}
	.st3{fill:none;}
	.st4{fill:#544233;}
	.st5{fill:#272525;}
	.st6{fill:none;stroke:#D3C0B5;stroke-width:0;stroke-linecap:round;stroke-linejoin:round;}
	.st7{fill:#8D6B5A;}
	.st8{fill:#2E4938;}
	.st9{fill:#EBB531;}
	.st10{fill:#B7482D;}
	.st11{fill:#070708;}
	.st12{fill:#2A5DA2;}
</style>
<g>
	<g>
		<path class="st0" d="M499.5,262.4c-1.9,0-2.2,0.3-0.9,1.1c0.9,0.6,1.6,1.6,1.5,2.2c-0.1,0.7,0.3,1.3,1.1,1.5
			c0.7,0.2,1.2-0.8,1.1-2.2C502.2,263.2,501.3,262.4,499.5,262.4z"/>
	</g>
	<path class="st1" d="M602.8,195.5c1.6-2.6,1.6-2.6,1.2-0.1c-0.3,1.7-2,2.9-5.5,3.9c-2.8,0.8-4.4,1.8-3.7,2.3
		c1.4,0.9,1.8,7.3,0.5,7.3c-0.5,0-1-1.6-1.1-3.5c-0.1-1.9-1.4-4.5-2.8-5.7c-1.4-1.2-2.6-2.8-2.6-3.5c0-0.8-0.6-1.4-1.3-1.4
		c-0.8,0-1.3-0.5-1.3-1.3c0-0.7,0.8-1.3,2-1.3c1.2,0,1.7,0.5,1.2,1.3c-0.4,0.7-0.1,1.3,0.6,1.3c0.7,0,1,0.7,0.5,1.5
		c-0.6,0.9-0.3,1.1,0.7,0.5c0.9-0.6,2-0.3,2.5,0.5c1,1.7,5.2,0.5,5.2-1.4c0-0.8-0.8-0.7-1.9,0.2c-1.5,1.2-1.9,1.2-1.9-0.3
		c0-1,0.7-2.5,1.6-3.3c1.2-1.2,1.9-0.7,2.9,2C601.1,197.8,601.3,197.9,602.8,195.5L602.8,195.5z"/>
</g>
<path class="st1" d="M513.5,202.5c-0.7,2.7-0.6,2.7,1.6,0.7c2.1-1.9,2.1-2.4,0.4-4c-1.3-1.2-2.5-1.5-3.7-0.7c-1.5,1-1.5,1.1,0.3,1.2
	C513.6,199.6,514,200.4,513.5,202.5z"/>
<path class="st1" d="M507.4,202.1c1,0,1.9-0.2,1.9-0.5c0-0.3-0.9-0.8-1.9-1.2c-1-0.4-1.9-0.1-1.9,0.5
	C505.5,201.5,506.4,202.1,507.4,202.1z"/>
<path class="st1" d="M515.7,214c-3.1-0.2-3.4,1.6-0.5,2.7c2.8,1.1,3.1,1,3.1-0.9C518.3,215,517.1,214.1,515.7,214z"/>
<path class="st0" d="M552.1,249.2c-2.4,0.2-4.5-0.2-4.5-0.9c0-0.7-1.1-1.2-2.5-1.2c-1.5,0-2.3,0.7-1.9,1.7c0.4,1-0.7,2.3-2.3,3.1
	c-2.9,1.4-2.9,1.4,0.6,1.5c1.9,0,3.5-0.5,3.5-1.2c0-0.7,0.6-1.3,1.4-1.3c0.8,0,1.1,1.2,0.8,2.6c-0.4,1.4-0.1,2.6,0.6,2.6
	c0.7,0,1.6-1.2,2-2.6c0.4-1.5,1.4-2.4,2.4-2c0.9,0.3,2.3-0.1,3-1C556.3,249.2,555.7,248.9,552.1,249.2z"/>
<path class="st0" d="M510.6,287.7c-0.7,1.8-1.8,1.7-2.4-0.7c-0.4-1.5-1.3-2.4-2.1-2c-0.6,0.3-0.8,0.3-0.7-0.1
	c-0.3-0.3-0.4-1.3-0.4-2.9c0-2-0.3-2.7-1.1-2.6c-0.3,0.5-0.5,1.1-0.7,1.8c-0.8,2.9-4.3,3.6-3.7,0.6c0.2-0.7-1.1-1.2-2.9-1.1
	c-3.5,0.2-3.8,3.1-0.5,4.7c1.1,0.5,3.2,1.6,4.9,2.5c1.7,0.9,3.6,1.2,4.4,0.7c0.9-0.5,1.1-0.3,0.5,0.6c-0.6,1,0.3,1.4,3,1.2
	c2.2-0.1,4-1,4.1-1.9c0-0.2,0-0.4,0.1-0.6C512.4,288.6,511.5,288.5,510.6,287.7z"/>
<path class="st0" d="M505,282.1c0,1.6,0.1,2.5,0.4,2.9c0.1-0.2,0.2-0.5,0.4-0.9c0.6-1,1.3-3.1,1.5-4.6c0.5-3.4-2-2.8-3.4,0
	C504.8,279.4,505,280.1,505,282.1z"/>
<path class="st0" d="M514,282.3c0.1-1.1,1.6-2.8,3.4-4c2.6-1.6,3.6-1.7,5.1-0.5c1.5,1.2,1.9,1.2,2-0.2c0-1.2,0.7-0.9,1.9,0.8
	c1,1.4,1.9,2.1,1.9,1.5c0-0.6,0.9-0.3,2,0.6c1.8,1.5,2,1,1.6-4.2c-0.2-3.2,0-5.6,0.5-5.3c0.5,0.3,1-0.1,1-0.8c0-0.8,1.7-1.2,4.2-1
	c3.3,0.3,4.1,0.9,3.7,2.9c-0.4,2.2-0.2,2.3,1.6,0.8c2.2-1.8,3-5.9,0.9-4.7c-0.6,0.4-0.9-0.4-0.5-1.9c0.4-1.4,1.2-2.6,1.8-2.6
	c0.6,0,1.2-1.1,1.2-2.4c0-1.3,0.8-2.7,1.6-3.1c0.9-0.3,0.3-0.7-1.3-0.8c-1.5-0.1-2.9-0.7-2.9-1.4c0-0.8-0.5-1.3-1.3-1.3
	c-0.7,0-1.3,0.9-1.3,1.9c0,1,0.6,1.9,1.3,1.9c2.7,0,1.1,3.6-1.8,4.1c-2.4,0.5-2.9,0.2-2.4-1.5c0.5-1.5,0-1.4-2.2,0.5l-2.9,2.6l3,0.5
	c1.7,0.3,3.6,1.1,4.3,1.8c0.9,0.9,0.1,1.1-2.5,0.6c-2.1-0.4-4.8-0.1-6.1,0.7c-1.7,1.1-2.9,1.1-4.6,0c-1.3-0.8-2.9-1.2-3.8-0.9
	c-2.1,0.7-2.2,3.7-0.3,4.9c1,0.6,1.2,0.2,0.7-1.2c-0.9-2.3,1.1-2.9,2.4-0.8c1.7,2.7-2.4,4.6-7.9,3.8c-4.4-0.7-5.6-0.4-5.9,1.1
	c-0.3,1.7-0.6,1.7-2.4-0.1c-1.4-1.4-2.6-1.7-3.8-0.9c-1.4,0.9-1.4,1.1,0.4,1.2c1.3,0,2.2,0.8,2.2,1.9c0,1,0.7,1.8,1.6,1.6
	c1-0.2,1.4,0.7,1.2,2.2c-0.2,1.4-0.5,3.5-0.7,4.7c-0.1,0.8-0.3,1.4-0.5,1.9c0.9,0.8,1.8,0.9,2.5,0.2c0.1-0.8,0.3-1.8,0.4-2.4
	C513.7,284.8,513.9,283.3,514,282.3z"/>
<path class="st0" d="M524.1,256.8c-0.5,0.5-0.9,1.7-0.9,2.7c0,1.4,0.4,1.4,1.9-0.1c1-1,1.9-2.3,1.9-2.7
	C527.1,255.7,525.2,255.8,524.1,256.8z"/>
<path class="st0" d="M550.2,260c-0.8,0-1.3,0.5-1.4,1.2c0,0.6-0.9,2.1-1.9,3.1c-1.2,1.1-1.4,2.2-0.7,2.7c0.7,0.4,2.1-1,3.3-3.1
	C550.6,261.7,551,260,550.2,260z"/>
<path class="st1" d="M523.9,220.3c-1.4,2.2-0.1,2.4,1.8,0.4c1-1,1.1-1.8,0.4-1.8C525.4,218.9,524.4,219.5,523.9,220.3z"/>
<path class="st0" d="M542.6,231.8c0,0.8,0.5,1.3,1.3,1.3c0.8,0,1.3-0.5,1.3-1.3c0-0.8-0.5-1.3-1.3-1.3
	C543.1,230.5,542.6,231,542.6,231.8z"/>
<path class="st0" d="M541.3,232.4c-0.7-0.4-1.3,0.4-1.3,1.9c0,1.4,0.6,2.6,1.3,2.6c0.7,0,1.3-0.8,1.3-1.9
	C542.6,234,542,232.8,541.3,232.4z"/>
<path class="st0" d="M494.3,255.9c-0.3,0-0.6,0.5-0.6,1.3c0,0.7,0.6,1.3,1.3,1.3c0.8,0,1-0.5,0.6-1.3
	C495.2,256.4,494.7,255.9,494.3,255.9z"/>
<path class="st0" d="M535.3,228.4c-3.3-2.6-4.5-2.2-2.6,0.7c0.9,1.4,2.3,2.6,3.3,2.6C538.1,231.7,537.8,230.4,535.3,228.4z"/>
<path class="st0" d="M513.1,232.9c0-1.4-0.6-2.6-1.3-2.6c-0.7,0-1.3,0.8-1.3,2c0,1.2-0.5,1.7-1.3,1.2c-0.7-0.4-1.3-0.2-1.3,0.6
	c0,0.7,1.1,1.4,2.6,1.4C512.2,235.5,513.1,234.6,513.1,232.9z"/>
<path class="st0" d="M515.6,234.3c0,0.8,0.5,1,1.3,0.6c0.8-0.5,1.3-1,1.3-1.3c0-0.3-0.5-0.6-1.3-0.6
	C516.2,232.9,515.6,233.5,515.6,234.3z"/>
<path class="st0" d="M533.8,235.6c3-1.2,0.9-1.5-3.1-0.5c-2.6,0.7-2.8,1.5-1,4.3c1,1.6,1.2,1.5,1.2-0.4
	C531,237.8,532.3,236.2,533.8,235.6z"/>
<path class="st0" d="M540.6,243.3c1.2,2,3.2,1.6,3.2-0.8c0-1.1,1.2-2.3,2.6-2.7c1.4-0.3,2.3-1.2,1.9-1.8c-0.4-0.6-0.1-1.2,0.7-1.2
	c0.8,0,1.1-0.6,0.6-1.3c-1.3-2.1-3.6-1.4-6.3,1.8c-1.5,1.8-3.5,2.7-5.1,2.4c-1.5-0.3-3.8,0.4-5.3,1.5c-1.5,1.2-1.8,1.8-0.6,1.5
	c1.1-0.3,2.9,0.7,4.2,2.2c1.6,1.9,2,2.1,1.5,0.6C537.1,243.3,539.4,241.2,540.6,243.3z"/>
<path class="st0" d="M509.2,238c0-0.8-0.2-1.3-0.6-1.3c-0.3,0-0.9,0.5-1.4,1.3c-0.4,0.7-0.2,1.3,0.6,1.3
	C508.6,239.3,509.2,238.8,509.2,238z"/>
<path class="st0" d="M526.9,241c-0.9,0.2-1.5-0.6-1.4-1.6c0.5-3.3-6.2-2.5-10.1,1.3l-3.5,3.4l2.9,0c1.9,0,2.8-0.5,2.4-1.6
	c-0.3-0.9,0-1.9,0.7-2.4c0.7-0.4,1.6,0.4,2.1,1.8c0.8,2.7,3.2,3.6,3.2,1.3c0-0.8,0.5-1.3,1.3-1.3c0.7,0,1.3,1,1.3,2.2
	c0,1.9,0.2,2,1.3,0.3C528.8,242,528.7,240.6,526.9,241z"/>
<path class="st0" d="M506.6,245c0-1.2-0.5-1.7-1.1-1.3c-1.7,1-5.5-0.6-4.6-2c0.4-0.6,0.2-1.3-0.4-1.7c-0.6-0.4-2,1-3.3,3.1
	c-2.7,4.5-2.7,5.3-0.2,4.3c1-0.4,1.9,0,1.9,0.9c0,0.9,0.4,1.2,0.8,0.8c0.4-0.4,0.1-1.7-0.8-2.8c-1.9-2.3-0.4-2.5,4.3-0.6
	C506,246.7,506.6,246.6,506.6,245z"/>
<path class="st0" d="M509.4,243.4c0.9-0.9,1.3-1.8,0.8-2.2c-0.4-0.4-1-0.3-1.5,0.2c-0.5,0.5-0.8,1.4-0.8,2.2
	C507.9,244.4,508.5,244.3,509.4,243.4z"/>
<path class="st0" d="M516.2,247c1-1.6,0.7-1.6-2.4,0.2c-2.2,1.3-2.2,1.5,0.5,4c3.1,2.9,5.1,2.2,2.6-0.8
	C516,249.3,515.7,247.8,516.2,247z"/>
<path class="st0" d="M527.9,246.9c-0.5,0.8-0.3,1.7,0.4,2.1c0.8,0.5,1,1.3,0.6,2c-0.4,0.7-0.1,1.2,0.7,1.2c1.6,0,1.7-2.6,0.3-4.9
	C529.2,246.2,528.5,246,527.9,246.9z"/>
<path class="st0" d="M521.4,247.1c-0.3,0-0.9,0.5-1.4,1.3c-0.4,0.7-0.2,1.3,0.6,1.3c0.8,0,1.3-0.5,1.4-1.3
	C522,247.6,521.8,247.1,521.4,247.1z"/>
<path class="st0" d="M509.7,252c0.4,0.6,0,1.4-0.9,1.8c-0.9,0.3-0.3,0.6,1.2,0.5c3.5-0.2,3.5-0.3,0.4-3.4c-2.3-2.3-2.5-2.3-3.7-0.3
	c-0.7,1.2-1.7,2-2.3,1.7c-0.5-0.2-1.2,0.3-1.5,1.2c-0.4,1.2,0.4,1,2.8-0.5C507.5,251.9,509.3,251.4,509.7,252z"/>
<path class="st0" d="M498.9,253.4c-0.7,0-1.5,0.5-2,1.3c-0.4,0.7,0.1,1.3,1.2,1.3c1.2,0,2-0.5,2-1.3
	C500.2,253.9,499.7,253.4,498.9,253.4z"/>
<path class="st0" d="M515.5,256.5c0,2.3-2.1,2.8-2.9,0.6c-0.3-0.8-1.6-0.1-3,1.5c-2.5,2.8-2.5,2.8,0.1,1.6c1.4-0.7,3.3-1,4.1-0.7
	c1.7,0.6,3.7-3.1,2.5-4.4C515.9,254.7,515.5,255.4,515.5,256.5z"/>
<path class="st0" d="M541.1,292.3c0.2,0.1,0.3,0.3,0.3,0.5c0,0.6-0.9,1-2.1,1c-1.1,0-2.2,0.4-2.7,1c0.4-0.2,0.8-0.3,1.2-0.3
	c1.3,0,1.5,1,0.8,3.5c-0.5,1.9-1.6,3.4-2.4,3.2c-2.2-0.5-1.8,1.9,0.5,2.8c1.4,0.5,2.1-0.3,2.7-3.1c0.4-2.2,1.2-3.8,1.7-3.8
	c0.3,0,2-2.7,3.7-6c-0.7-0.2-1.3-0.4-1.7-0.5C542.5,291.3,541.8,291.9,541.1,292.3z"/>
<path class="st0" d="M533.9,297.4c1.3,0.7,2.5,0.9,2.9,0.5c0.4-0.4,0.1-0.8-0.8-0.8c-0.9,0-1.2-0.5-0.8-1.3c0.1-0.2,0.3-0.3,0.4-0.5
	c-0.5,0-1.2-0.4-1.9-1C532,296.1,532.2,296.5,533.9,297.4z"/>
<path class="st0" d="M537.1,292.9c0-0.4,0.7-0.8,1.7-0.9c0.2-0.6,0.8-1.3,1.7-1.9c0,0,0.1,0,0.1-0.1c-0.2-0.3-0.3-0.7-0.3-1.3
	c0-0.1,0-0.2,0-0.3c-0.3-0.1-0.6-0.3-0.7-0.6c-0.3,0.3-0.7,0.8-1.4,1.5c-0.2,0.2-0.3,0.4-0.5,0.6c-0.4,0.9-1.2,2-2.4,3.1
	c0.1,0,0.1,0.1,0.2,0.1C536.3,293.5,537.1,293.4,537.1,292.9z"/>
<path class="st0" d="M540.6,290c1.7-1.3,1.8-1.7,0.5-1.5c-0.3,0.1-0.6,0-0.8-0.1c0,0.1,0,0.2,0,0.3
	C540.2,289.3,540.3,289.7,540.6,290z"/>
<path class="st0" d="M548.1,279.2c-2,0-1.3-3.8,1-5.3c0.7-0.5,0.9-1.5,0.4-2.3c-1.4-2.1-2.4-1.7-5.8,2.7c-2.6,3.3-3.2,3.6-4.2,1.8
	c-1.2-2.2-4.9-2.9-4.9-0.9c0,0.7,1,0.9,2.1,0.5c1.4-0.5,1.8-0.3,1.2,0.7c-0.5,0.9-0.1,1.8,1.1,2.2c1.1,0.4,2,2.3,2.1,4.2
	c0.1,3.4,0.1,3.4,1.2-0.4c0.6-2.2,1.1-3.1,1.2-2.1c0.1,1,0.9,1.4,2,1c2.4-0.9,2.4,0.4,0,3.6c-1,1.3-1.6,2.9-1.3,3.3
	c0.3,0.5-0.3,1.5-1.2,2.5c0.4,0.1,1,0.3,1.7,0.5c2.5-4.6,5.3-10.3,5.3-11.2C550.1,279.5,549.2,279.2,548.1,279.2z"/>
<path class="st0" d="M541.4,292.8c0-0.2-0.1-0.3-0.3-0.5c-1,0.6-1.8,0.9-2.2,0.6c-0.2-0.2-0.2-0.5-0.1-0.9c-1,0.1-1.7,0.5-1.7,0.9
	c0,0.4-0.7,0.5-1.6,0.2c-0.1,0-0.2-0.1-0.2-0.1c-0.1,0.1-0.1,0.1-0.2,0.2c-0.5,0.4-0.9,0.8-1.2,1.1c0.6,0.6,1.3,1,1.9,1
	c0.3-0.2,0.6-0.4,0.9-0.5c0.5-0.6,1.6-1,2.7-1C540.4,293.8,541.4,293.4,541.4,292.8z"/>
<path class="st0" d="M539.5,287.9c-0.1-0.2-0.1-0.4-0.1-0.7c0.2-0.9-0.3-1.6-1-1.6c-0.7,0-1,1-0.7,2.3c0.2,0.7,0.1,1.3-0.1,2.1
	c0.2-0.2,0.3-0.4,0.5-0.6C538.8,288.6,539.2,288.1,539.5,287.9z"/>
<path class="st0" d="M559.7,272.9c-0.5-0.8-1-1.3-1.3-1.3c-0.3,0-0.6,0.5-0.6,1.3c0,0.7,0.6,1.3,1.3,1.3S560.1,273.6,559.7,272.9z"
	/>
<path class="st0" d="M546.5,295.9c0.6,0,0.9,0.9,0.5,1.9c-0.4,1.2,0.1,1.9,1.2,1.9c1,0,1.6-0.5,1.2-1.1c-0.6-0.9,0.3-3.5,1.6-5.9
	c-0.8-0.1-1.6-0.3-2.4-0.5C546.8,294.4,545.9,295.9,546.5,295.9z"/>
<path class="st0" d="M555,288c1.3-0.3,1.5-0.7,0.6-1.3c-0.8-0.5-3.4,1.3-5.9,4.1c-0.4,0.5-0.8,0.9-1.2,1.4c0.8,0.2,1.6,0.4,2.4,0.5
	C552.2,290.4,553.9,288.2,555,288z"/>
<path class="st0" d="M558.5,288c-0.4,0.6-0.1,1.9,0.6,2.9c0.9,1.4,1.2,1.2,1.2-1C560.3,287,559.6,286.2,558.5,288z"/>
<path class="st0" d="M561.6,299.2c0-0.8,0.2-1.3,0.5-1.7c-0.9,0.9-1.6,2.3-1.8,3.8c0.1,0,0.1,0,0.2,0
	C561.2,301.3,561.6,300.3,561.6,299.2z"/>
<path class="st0" d="M560.3,302.5c0,0.6,0,1.1,0,1.5c0.2-0.1,0.5-0.2,0.7-0.3C561.4,303.5,561.1,303,560.3,302.5z"/>
<path class="st0" d="M566,294.7c0,0.1,0,0.2,0.1,0.3c0.6,1.8,0.4,2.4-0.6,1.7c-1-0.6-2.2-0.3-3.1,0.5c0.5-0.4,1.3-0.1,1.9,0.9
	c0.4,0.6,0.2,1.1-0.4,1.1c-0.4,0-0.8,0.6-0.9,1.4c2.1-2.1,5.4-3.1,7-1.8c1.8,1.5,3.4-0.1,1.9-1.9c-0.7-0.8-1.3-2.2-1.6-3.4
	c-0.2-0.9-1-1.4-1.9-1.5C567.7,293.3,566.8,294.5,566,294.7z"/>
<path class="st0" d="M567.6,291.9c-1.6,0.3-2,1.1-1.6,2.8c0.7-0.2,1.7-1.4,2.4-2.9C568.2,291.8,567.9,291.8,567.6,291.9z"/>
<path class="st0" d="M563.9,299.2c0.6,0,0.8-0.4,0.4-1.1c-0.6-1-1.4-1.2-1.9-0.9c-0.1,0.1-0.2,0.2-0.3,0.3c-0.3,0.4-0.5,0.9-0.5,1.7
	c0,1.2-0.5,2.1-1.1,2.1c-0.1,0-0.2,0-0.2,0c0,0.3-0.1,0.6-0.1,1c0,0.1,0,0.2,0,0.3c0.8,0.4,1.1,0.9,0.7,1.2
	c-0.2,0.1-0.4,0.2-0.7,0.3c0.1,1.4,0.3,0.8,1.2-1.4c0.3-0.8,0.8-1.5,1.4-2.1C563.1,299.7,563.4,299.2,563.9,299.2z"/>
<path class="st0" d="M558.1,297.3c-0.2-0.3-0.4-0.7-0.6-1.1c-2-3.2-3.6-3.6-3.6-0.9c0,1,0.6,1.9,1.3,1.9c0.7,0,1.3,0.6,1.3,1.5
	c0,1.2-0.4,1.2-1.5,0c-2-2-3.6-1.9-3.6,0.2c0,2.6,3.2,3.5,5.8,1.6c0.4-0.3,0.8-0.6,1-0.9C558.2,299.2,558.2,298.3,558.1,297.3z"/>
<path class="st0" d="M558.1,297.3c0.1,1,0.1,1.9,0,2.4C558.7,299,558.7,298.4,558.1,297.3z"/>
<path class="st0" d="M561.6,278c-0.7,0-1.3,0.6-1.3,1.3c0,0.8,0.5,1,1.3,0.6c0.8-0.5,1.3-1,1.3-1.3S562.4,278,561.6,278z"/>
<path class="st0" d="M576.5,262.7c-0.3,0-0.9,0.5-1.4,1.3c-0.4,0.7-0.2,1.3,0.6,1.3c0.8,0,1.3-0.5,1.4-1.3
	C577.1,263.2,576.8,262.7,576.5,262.7z"/>
<g>
	<path class="st1" d="M583.1,208c-1-0.4-1.6-1.3-1.2-1.9c0.4-0.7,1.2-0.9,1.9-0.4c1.8,1.1,1.4-0.7-0.6-2.8c-1-1-2.5-1.8-3.5-1.7
		c-1.3,0.1-1.3,0.3-0.1,0.8c0.9,0.4,1.6,1.2,1.6,1.9c0,0.6-0.7,0.8-1.5,0.3c-1-0.6-1.2-0.2-0.7,1.2c0.5,1.4,0.1,2.1-1.3,2.1
		c-1.2,0-1.7,0.4-1.2,0.9c1,1,1.7,1.2,5.4,1.5c1,0.1,1.6,0.7,1.2,1.4c-0.4,0.7-0.2,1.5,0.6,2c0.7,0.4,1.3-0.4,1.3-1.9
		C585,209.9,584.2,208.4,583.1,208z"/>
	<path class="st1" d="M585.8,201.6c1.5,0.6,1.8,1.8,1.1,4.6c-0.8,3.3-0.5,4,2.4,5.3c1.8,0.8,3.3,2.3,3.3,3.2c0,0.9,0.5,2,1.1,2.3
		c0.6,0.3,0.8-0.8,0.5-2.5c-0.3-1.7-1.2-3.1-1.8-3.1c-0.7,0-0.9-0.9-0.5-2.1c0.6-1.6,0.2-1.9-1.6-1.5c-2.1,0.5-2.3,0.1-1.4-3.6
		c0.8-3.5,0.6-4.3-1.5-4.8C584.5,198.7,583,200.6,585.8,201.6z"/>
	<path class="st1" d="M582.4,224.2c-0.7,0-1.3,0.6-1.3,1.3c0,0.8,0.5,1,1.3,0.6c0.8-0.5,1.3-1,1.3-1.3
		C583.6,224.5,583.1,224.2,582.4,224.2z"/>
	<path class="st0" d="M575.9,231.9c-0.8,0-1.3,0.5-1.3,1.3c0,0.8,0.5,1.3,1.3,1.3c0.8,0,1.3-0.5,1.3-1.3S576.7,231.9,575.9,231.9z"
		/>
	<path class="st0" d="M576.6,238.3c-0.3,0-1.2,1.1-2,2.6c-1.1,2-1,2.6,0.6,2.6c1.1,0,2-1.1,2-2.6S576.9,238.3,576.6,238.3z"/>
	<path class="st0" d="M588.3,230c-0.4,1-0.2,2.1,0.5,2.6c0.7,0.4,1.2-0.4,1.2-1.8C590,227.7,589.3,227.4,588.3,230z"/>
	<path class="st1" d="M605.7,193c0.7,0.4,0.9,1.2,0.4,1.9c-0.4,0.7-0.1,1.2,0.6,1.2c0.8,0,1-1.7,0.6-4.2c-1-5.3-1.2-5.5-2.1-2.3
		C604.9,191.1,605,192.6,605.7,193z"/>
	<path class="st1" d="M610.1,197.4c-0.4,0.7-0.2,1.5,0.6,1.9c0.7,0.4,1.3-0.1,1.3-1.1C612,195.9,611.2,195.6,610.1,197.4z"/>
	<path class="st1" d="M605.4,201.8c1.2,0.7,2.7-0.4,2.7-2c0-0.6-0.5-1-1.2-1C605.2,198.7,604,200.9,605.4,201.8z"/>
	<path class="st1" d="M614.6,205.1c0.8,0,1-0.5,0.6-1.3c-0.5-0.8-1-1.3-1.3-1.3c-0.3,0-0.6,0.5-0.6,1.3
		C613.2,204.6,613.8,205.1,614.6,205.1z"/>
	<path class="st1" d="M613.8,209c-0.5,0.8-0.6,1.7-0.2,2.1c0.3,0.3,1-0.3,1.4-1.3C615.8,207.4,615.1,206.9,613.8,209z"/>
	<path class="st1" d="M607.4,220.5c-1.2,0-2,0.5-2,1.3c0,0.8,0.5,1.3,1.2,1.3c0.7,0,1.5-0.5,2-1.3
		C609.1,221,608.6,220.5,607.4,220.5z"/>
	<path class="st0" d="M613.1,228.7c0,1-0.4,2.8-0.9,4.1c-0.7,1.9-0.4,1.8,2.1-0.4c1.7-1.5,2.6-3.3,2.1-4.1
		C615.2,226.4,613.1,226.7,613.1,228.7z"/>
	<path class="st1" d="M523.9,200.3c1-2.7,0.6-3.4-1.3-2.2c-0.9,0.6-1.2,1.6-0.5,2.7C522.8,202,523.3,201.9,523.9,200.3z"/>
	<path class="st1" d="M531,207.3c1.4,0,3.2-5,2.2-6c-0.4-0.4-1.2,0.4-1.6,1.7c-0.4,1.3-1.1,2.9-1.4,3.4
		C529.9,207,530.2,207.3,531,207.3z"/>
	<path class="st1" d="M554.2,211.3c0.8,0,1.3-0.5,1.3-1.3c0-0.8-0.5-1.3-1.3-1.3c-0.8,0-1.3,0.5-1.3,1.3S553.4,211.3,554.2,211.3z"
		/>
	<path class="st1" d="M541.2,190.7c1.9,0,2-0.1,0.3-1.2c-2.6-1.7-4.3-1.7-3.2,0C538.6,190.1,540,190.7,541.2,190.7z"/>
	<path class="st1" d="M574.7,209.1c0-1.5-0.9-2.3-2.6-2.3c-3.1,0-3.2,0.3-0.8,2.7C573.8,211.9,574.7,211.8,574.7,209.1z"/>
</g>
<path class="st0" d="M479.3,233.3c-3.2,2.4-2.7,3.3,1,1.6c1.8-0.8,3.2-1.9,3.2-2.5C483.6,226.5,478.1,234.2,479.3,233.3z"/>
<path class="st0" d="M486.7,260c-1.8,0-3.2,0.5-3.2,1.1c0,0.6,1.4,1.2,3.2,1.2c1.8,0,3.2-0.5,3.2-1.1
	C489.9,260.5,488.5,260,486.7,260z"/>
<path class="st0" d="M484.3,266.1c0.4,1.4,1.1,2.3,1.7,1.9c0.6-0.4,0.8-1.6,0.4-2.6C485.3,262.5,483.6,263.2,484.3,266.1z"/>
<path class="st1" d="M477.7,273.7c-1,1.7,0,3.6,1.3,2.3c0.4-0.4,0.5-1.5,0.3-2.4C478.9,272.4,478.5,272.4,477.7,273.7z"/>
<path class="st0" d="M492.6,277.6l-0.2-0.8c-1.7,1.1-3.9,1.2-3.9,0c0-0.4,1-1.5,2.3-2.5c0.3-0.2,0.5-0.4,0.8-0.6l0,0l-0.2-0.7
	c-0.5,0.1-1.1,0.3-1.9,0.5c-2.8,0.7-3.1,6.3-0.4,7.3c1.2,0.5,1.7,0.2,1.3-0.5c-0.4-0.7,0.3-1.3,1.7-1.3c1.4,0,2.8-0.9,3.3-2
	c0.7-1.9,0.6-2.9-0.2-2.6l-0.8,0.9L492.6,277.6z"/>
<path class="st0" d="M491.6,273.7c1.2-0.9,1.2-1.1-0.2-0.8L491.6,273.7L491.6,273.7z"/>
<path class="st0" d="M493.6,275.8c-0.3,0.4-0.8,0.8-1.2,1.1l0.2,0.8l1.9-2.3l0.8-0.9C494.9,274.5,494.3,275,493.6,275.8z"/>
<g>
	<path class="st2" d="M770.6,492.6c-1-2.4-1.7-4-1.7-4s7.6-4.7,12.3-9.1h-6.1h-9.5h-49v-13.9h4.2c8.6,0,9.3-1.5,9.3-3.6
		c0-1.4-0.7-5.6-3.4-12.5l-6.1-15.8h-12.4l2.3,7.5V455v3.3c0,0-0.4,0-1,0c-2.3-0.1-7.7-0.3-7.6,0c2.6,4.3-1.7,8.5-1.7,8.5
		s0.6,2.8-0.6,5.9l-3.7,38.4c0,0-3.4,34.1,1.7,48.6c5.1,14.5-12.8,20.5-12.8,20.5l-0.9,24.7l0.9,13.6l-5.1-4.3c0,0-3.4-6-10.2-5.1
		c-6.8,0.9-8.5,11.9-8.5,11.9l7.5,8.1h3.8l4.5,0.6l3.8-5.8l5.8-3.2c0,0,4.3,3.7,8.3,7.5c5.4-27.7,18-56.9,37.9-87.2
		C744.4,523.4,757.1,507.1,770.6,492.6z"/>
	<path class="st3" d="M782.3,464.9c4.4-1,4.4-3.4,4.4-9v-9.4l-10.1,6.2C776.6,452.8,779.8,459,782.3,464.9z"/>
	<path class="st2" d="M736.9,399.9l19.2,49c5.4,13.5,6.8,16.4,14.9,16.7c5.4,0,8.9-0.2,11.3-0.7c-2.4-5.9-5.7-12.1-5.7-12.1
		l10.1-6.2v-12.6c-3.2-5.1-9.5-11.6-21.6-18.3c5.8-5.8,16.6-12.2,16.6-12.2L736.9,399.9z"/>
</g>
<g>
	<g>
		<path class="st3" d="M442,432.9c2,7.9,7.3,14.9,11.4,20.1c-6.4-11.8-11.2-23.5-11.5-32.2C442.2,425,442.3,429,442,432.9z"/>
		<path class="st3" d="M783,326.8c-4.5,1.3-9.7,2.8-14.2,4.1C775.1,331.3,779.7,329.6,783,326.8z"/>
		<path class="st3" d="M444.8,233l3.7-4.6c0.1-5.4,0.7-11.4,2-17.6L444.8,233z"/>
		<path class="st3" d="M800,323.6c0,0,0.2-0.2,0.6-0.5l-0.8,0.1C800,323.4,800,323.6,800,323.6z"/>
		<path class="st4" d="M1073.6,303.1l0.5,0.1c0,0-0.1-0.1-0.1-0.1C1073.8,303.1,1073.7,303.1,1073.6,303.1z"/>
		<path class="st4" d="M172.6,762l1.1,1c1.7-3,3.3-6,4.7-8.8C176.4,756.9,174.5,759.5,172.6,762z"/>
		<path class="st4" d="M188.7,672.3c0,0-1.4,0.4-3.7,1.1l-2,4.4C186.6,674.5,188.7,672.3,188.7,672.3z"/>
		<path class="st4" d="M200.4,771.1l0.7-0.1c0.1-0.7,0.3-1.5,0.4-2.3C201.1,769.5,200.8,770.3,200.4,771.1z"/>
		<path class="st4" d="M441.9,420.8c-0.2,1.8-0.4,3.6-0.7,5.3c0,2.3,0.2,4.6,0.8,6.8C442.3,429,442.2,425,441.9,420.8z"/>
		<path class="st4" d="M421.3,482.9c0.2-0.3,0.5-0.5,0.7-0.8c-0.2,0-0.4,0.1-0.6,0.1C421.4,482.4,421.4,482.6,421.3,482.9z"/>
		<path class="st3" d="M671.1,245.7v0.5l-3.2,2.6l-1.9,3.8l-6.4,5.8l1.9,6.4l-7.7-2.6l6.4,8.3l-7.7-1.3l4.5,7l-4.5-1.9h-3.2l3.2,3.8
			l-8.3,2.6l1.9,3.2l-4.5-1.3l-0.5,2.3c0,0-0.1,0.3-0.2,0.9c-0.6,3.2-14.1,14.7-14.1,14.7l2.6,6.4l-3.8-2.6l-9.6,1.9l-1.3,7.7
			l1.9,10.2c0,0-1.3-4.5-4.5-9.6c-3.2-5.1-9,3.8-12.8,3.8c-3.8,0-13.4,3.2-13.4,3.2l-4.5,1.9l-5.1-4.5c0,0-1.9,3.8-1.9,5.8
			c0,1.9,0-3.2-1.3-3.2l-4.5-0.6l-1.3,5.8l-1.9-3.8l-5.8,2.6h-4.5l-7-3.8v5.1l-3.8-7.7v3.2l-8.3-3.8l-6.4-9.6c0,0-3.8,9.6-4.5,6.4
			c-0.6-3.2-7.7-12.2-7.7-12.2l-3.8,9.6c0,0-0.6-7-0.6-9.6c0-2.6-3.8,3.8-3.8,3.8v-3.8l-5.1,6.4l1.3-9.6l-4.5,4.5l-3.2-6.4l-1.9,5.8
			l-1.3-9l-3.2,8.3v-9l-4.5,5.8v-6.4l-10.2,5.8l-3.8-6.4l-1.3,5.8l-0.6-9l-1.3-3.2l-1.3,5.1l-2.6-7l-3.2,3.2l1.9-15.3
			c0,0-10.2-10.9-12.8-17.9c-1.5-4.2-3.5-13.9-3.2-26.1l-3.7,4.6l-1.1,4.5c0,0-34.1,52.9-66.1,69.5c-32,16.6-51.2,35.8-51.2,53.7
			s7.7,44.8,0,65.2c-7.7,20.5-28.1,40.9-28.1,40.9s9,19.2-5.1,42.2s-24.3,37.1-24.3,37.1s7.7,20.5,2.6,30.7c-5.1,10.2-23,23-23,23
			s-16.6,39.6-32,49.9c-7.2,4.8-15.8,12.3-27.5,17.8c8.6-1.5,12.6-2.9,12.6-2.9s-9.4,16.4-18.1,26.8c7.6-6.3,17.2-14,17.2-14
			s-19.1,38.1-33,56.9c19.3-21.2,34.5-37.4,39.8-50.9c5.3-13.8-17.4,46.4-24,60.9c6.4-10.5,28.3-43.9,28.3-43.9l-16.2,48.6
			c0,0,12.8-11.9,17.1-26.4c4.3-14.5-9.4,37.5-9.4,37.5l17-7c8.1-13.3,18.7-30.3,22.2-34.8c6-7.7,12.8-31.5,12.8-31.5l5.1-0.9
			l13.9-49.1c-2,1.1-4.4,1.8-7,2.2c3.4-12.4,14.5-43.9,20-49.9c5.5-3.4,8.5-7.2,8.5-7.2s5.1-13.4,9.6-13.4s12.8-10.9,19.2-10.9
			c7-10.2,14.7-10.2,16-12.2c1.3-1.9,10.9-10.2,10.9-10.2l5.8-0.6l10.9-16l4.5,3.2c0,0,9.6-14.1,9.6-17.9s10.2,3.8,13.4,0
			s3.2-3.8,3.2-3.8l-1.3-15.3l16.6-0.6l5.8-14.7c0,0,16.4-9.9,21.5-43.3c0-1.7,0.2-3.5,0.7-5.3v0v0v0c0.3,8.7,5.1,20.4,11.5,32.2
			c1.9,2.4,3.7,4.5,4.7,6.2c-0.1,0.5-0.2,1-0.4,1.5c13,21.9,29.1,42,29.1,42l1.4-0.6c7.2,7.2,15.8,12.8,25.3,13.4
			c4.7,0.3,6.9,11,14.3,17.7c12.5,11.4,31,23.2,47.1,25.8c7.3,5.2,11.6,8.3,14.2,10.1l5.2,2.1c2.3-1,6.8-3.2,10.5-6.2
			c5.1-4.3-2.6,9.4,9.4,7.7c11.9-1.7,16.2-6.8,22.2-10.2c6-3.4-0.9,7.7,6.8,3.4c7.7-4.3,0.9-2.6,7.7-4.3c6.8-1.7,8.5-6.8,8.5-6.8
			s-0.9,11.1,5.1,7.7c6-3.4,16.2-29.8,16.2-29.8V518l8.5-6c0,0-2.6-29,5.1-33.3c3.1-1.7,4.6-4,5.4-6c1.2-3.1,0.6-5.9,0.6-5.9
			s4.3-4.3,1.7-8.5c-0.2-0.3,5.3-0.1,7.6,0l1-3.3v-13.7l-4.3-13.6l12.2-29.2c0,0,1.3-14.1,5.8-23.7c4.5-9.6,1.9-32,1.9-32
			s-12.2-43.5-18.5-75.5c3.8,15.3,12.4,17.9,12.4,17.9s12.8,20.5,22.2,28.1s12.8-3.4,12.8-3.4s1.7,5.1,6,19.6c2.9,0.8,5.6,1.2,8,1.3
			c4.4-1.3,9.6-2.8,14.2-4.1c9.1-7.7,8.9-23.8,8.2-30.3c-0.3-1.3-0.5-2.2-0.5-2.7c0-0.6,0.3,0.5,0.5,2.7c1.8,7,7.7,23.8,8.7,26.7
			l0.8-0.1c3.5-2.9,21.1-17.7,25-20c4.3-2.6,26.4,2.6,34.1-3.4c12.8,0,26.4,0.9,30.7-4.3c4.3-5.1,24.7,0,31.5-11.1
			c10.2,4.3,27.3,8.5,27.3-4.3c11.1,6,23,5.1,23,0c6.8,4.3,22.2,4.3,22.2,0c4.3,2.6,21.3,4.3,22.2,0c9.4,7.7,15.3,10.2,16.2,0.9
			c11.1,8.5,27.3,14.5,18.8-3.4c17.1,12.8,22.4,25.6,22.4,25.6l5.8-2.6l38.8,13.6l-50.7-67.4l114.3,67.4l-78.4-62.2l115.1,61.4
			l-77.6-57.1l115.1,58l-113.4-66.5l156.9,74.2l-81-47.7c0,0,24.3,12.1,112.9,32.2c-19.5-5.1-121.4-39-121.4-39s66,18,136.5,24.9
			c-25.4-3.4-98.1-19.8-98.1-19.8s24.8,4.5,87.3,9.3c-23.2-3.2-65.3-12.9-48.9-11.9c12.4,0.8,47.6,1.5,68.5,2
			c-26.6-1.9-68.5-8.4-68.5-8.4h53.7l-81.9-7.7l33.3-3.8c0,0,0,0-49.9-1.3c-65.2-2.6-147.1-33.3-186.7-44.8
			c-39.6-11.5-65.2-12.8-138.1-38.4s-104.9-16.6-142-17.9c-37.1-1.3-65.2,11.5-94.6,9c-3-0.3-5.9-0.7-8.8-1.4l2.8,3.5
			c0,0,16.2,20.5,13.6,32.4"/>
		<path class="st2" d="M650,626.3c0,0-6.8-9.4-8.5-1.7c-1.7,7.7-3.4,11.9-3.4,11.9s-11.9-4.3-20.5-10.2
			c-8.5-5.1-19.6-13.6-19.6-13.6l-3.4-5.1l-6-2.6v7.7l-14.5-6.8l-2.6-8.5l-6-11.1l-5.1,4.3c0,0,0,0-7.7-2.6
			c-2.6-6.8-25.6-54.6-25.6-54.6l0.7-0.3c-7.4-6.7-9.6-17.3-14.3-17.7c-9.5-0.6-18.1-6.2-25.3-13.4l-1.4,0.6
			c0,5.8,1.9,14.1,1.9,14.1s0,7-10.2,20.5s-36.5,44.1-32,48c9,1.3,15.3-1.3,16.6-6.4c-0.6,5.8-15.3,31.3-6.4,43.5
			c9.6-0.6,19.2-3.2,19.2-3.2s-0.6,19.8,0.6,23c5.1,0,17.9-4.5,21.7-5.8c0,5.1,5.1,12.8,5.8,16c7-2.6,16-7,16-7l5.1-0.6
			c0,0,5.1,7.7,8.3,12.2s8.3,10.9,8.3,10.9s19.2-9,20.5-13.4c2.6,3.8,7.7,9,9,11.5c1.3,2.6,4.5,8.3,4.5,8.3l0.6,4.5
			c0,0,9.6-10.2,10.9-12.8c1.3-2.6,0.6-7.7,5.8-10.2s7-5.1,7-5.1l5.1-29.4c0,0,26.2,22.4,26.2,24.3c0,1.9,0,1.9,0,1.9s4.5,0,7.7,1.3
			c3.2,1.3,2.6-12.8,2.6-12.8l1.9,2.6c0,0,0,6.4,1.9,4.5s4.5-5.1,4.5-5.1l-0.6-7.7l11.7-8.7h-6.8L650,626.3z"/>
		<path class="st5" d="M669.6,609.2c6.8-0.9,10.2,5.1,10.2,5.1l5.1,4.3l-0.9-13.6l0.9-24.7c0,0,17.9-6,12.8-20.5
			c-5.1-14.5-1.7-48.6-1.7-48.6l3.7-38.4c-0.8,2.1-2.3,4.3-5.4,6c-7.7,4.3-5.1,33.3-5.1,33.3l-8.5,6v14.5c0,0-10.2,26.4-16.2,29.8
			c-6,3.4-5.1-7.7-5.1-7.7s-1.7,5.1-8.5,6.8c-6.8,1.7,0,0-7.7,4.3c-7.7,4.3-0.9-6.8-6.8-3.4c-6,3.4-10.2,8.5-22.2,10.2
			c-11.9,1.7-4.3-11.9-9.4-7.7c-3.7,3.1-8.2,5.3-10.5,6.2c-0.9,0.4-1.4,0.6-1.4,0.6s0,0-3.7-2.7c-2.6-1.8-6.9-4.9-14.2-10.1
			c-16.1-2.7-34.6-14.5-47.1-25.8l-0.7,0.3c0,0,23,47.7,25.6,54.6c7.7,2.6,7.7,2.6,7.7,2.6l5.1-4.3l6,11.1l2.6,8.5l14.5,6.8V605
			l6,2.6l3.4,5.1c0,0,11.1,8.5,19.6,13.6c8.5,6,20.5,10.2,20.5,10.2s1.7-4.3,3.4-11.9c1.7-7.7,8.5,1.7,8.5,1.7l4.3-5.1h6.8
			C661.1,621.2,662.8,610.1,669.6,609.2z"/>
		<path class="st5" d="M790.7,293.8c0,0.5,0.2,1.4,0.5,2.7C790.9,294.3,790.7,293.1,790.7,293.8z"/>
		<path class="st2" d="M1051.6,277.5c8.5,17.9-7.7,11.9-18.8,3.4c-0.9,9.4-6.8,6.8-16.2-0.9c-0.9,4.3-17.9,2.6-22.2,0
			c0,4.3-15.3,4.3-22.2,0c0,5.1-11.9,6-23,0c0,12.8-17.1,8.5-27.3,4.3c-6.8,11.1-27.3,6-31.5,11.1c-4.3,5.1-17.9,4.3-30.7,4.3
			c-7.7,6-29.8,0.9-34.1,3.4c-3.8,2.3-21.5,17-25,20c-0.4,0.3-0.6,0.5-0.6,0.5s-0.1-0.2-0.2-0.4c-1-2.9-6.9-19.7-8.7-26.7
			c0.7,6.5,0.9,22.7-8.2,30.3c-3.3,2.8-7.9,4.5-14.2,4.1c-2.4-0.1-5.1-0.6-8-1.3c-4.3-14.5-6-19.6-6-19.6s-3.4,11.1-12.8,3.4
			s-22.2-28.1-22.2-28.1s-8.5-2.6-12.4-17.9c6.4,32,18.5,75.5,18.5,75.5l2.6-3.8l9.6,6.4L758,337l1.3-3.2c0,0,0,0,5.8,2.6
			c7.7,1.3,38.4-11.5,38.4-11.5s3.8,3.2,10.9,3.2c7,0,23-10.9,23-10.9s2.6,1.9,6.4,3.8c19.8-2.6,26.9-10.9,26.9-10.9s0,0,5.1,3.8
			c15.3,0.6,20.5-4.5,26.9-8.3c10.9,9.6,26.2-1.3,29.4-4.5c15.3,9,21.1,1.3,26.9-2.6c10.9,8.3,17.9,0,24.9-1.9
			c13.4,7.7,22.4,1.3,25.6-1.3c7.7,5.1,16,5.8,23.7,5.1c11.8,7,18.2,2.2,22.3,1.3c0.8-0.2,1.4-0.2,2,0c3.8,1.3,10.6,1.3,16.2,1.3
			c0.1,0,0.3,0,0.4,0C1074,303.1,1068.6,290.3,1051.6,277.5z"/>
		<path class="st5" d="M441.9,420.8c-0.4,1.8-0.7,3.5-0.7,5.3C441.5,424.4,441.7,422.6,441.9,420.8L441.9,420.8z"/>
		<line class="st6" x1="441.9" y1="420.8" x2="441.9" y2="420.8"/>
		<path class="st2" d="M453.4,453c-4.2-5.2-9.4-12.2-11.4-20.1c-0.6-2.2-0.8-4.5-0.8-6.8c-5.1,33.5-21.5,43.3-21.5,43.3l-5.8,14.7
			l-16.6,0.6l1.3,15.3c0,0,0,0-3.2,3.8s-13.4-3.8-13.4,0s-9.6,17.9-9.6,17.9l-4.5-3.2l-10.9,16l-5.8,0.6c0,0-9.6,8.3-10.9,10.2
			c-1.3,1.9-9,1.9-16,12.2c-6.4,0-14.7,10.9-19.2,10.9s-9.6,13.4-9.6,13.4s-3,3.8-8.5,7.2c-5.5,6-16.6,37.5-20,49.9
			c2.7-0.4,5-1.2,7-2.2c11.9-6.1,13.4-21.7,13.4-21.7c3.4-1.7,0.9-4.3,4.3-11.9c3.4-7.7,7.7-5.1,11.1-16.2
			c10.2-2.6,13.6-10.2,17.1-13.6c9.4-0.9,15.3-6,18.8-14.5c6.8-0.9,17.9-6,17.9-10.2c6,0.9,12.8-4.3,17.1-12.8
			c7.7-2.6,11.9-6.8,12.8-15.3c7.7,0,12.8-6,16.2-17.1c9.2-3.3,16.7-9.2,18.6-20.6c0-0.2,0.1-0.5,0.1-0.7c0.2,0,0.4-0.1,0.6-0.1
			c12.3-2,14.8-12.8,16.5-17.8c15.9,0,17.7,2.2,19.3-3.7c0.1-0.4,0.2-0.9,0.4-1.5C457.1,457.5,455.4,455.5,453.4,453z"/>
		<g>
			<path class="st7" d="M1402.7,264.1c-9,1.9-30.7,0-39-0.6c26.2-6.4,24.9-14.7,26.2-19.2c-46,10.9-67.1,7.7-87,7.7
				c7-0.6,20.5-9,33.9-16.6c21.7-13.2,26.2-35.2,22.4-39c-58.8,51.8-69.1,46-100.4,49.2c-35.8,2.6-134.9-35.2-158.6-43.5
				c-22.4-8.3-158-49.2-169.5-52.4c-7.7-5.1-19.2-9.6-39.6-15.3c-20.5-5.1-68.4-1.3-84.4-1.9c-0.6-5.1-37.1-1.9-48-1.9
				c-3.8-7.7-6.4-4.7-23.4-3.8c-14.5,6.8-32.8,19.8-45.2,15.3c-29.5-10.7-65.7-9-65.7-9s-2.3,1.4-0.5,3.6l0.9-0.2
				c0,0,2.6,0.6,6.5,1.9c6,4.2,15.4,10.1,26.4,14.5c4.5,1.8,9.2,3.3,14.1,4.4c2.9,0.6,5.8,1.1,8.8,1.4c29.4,2.6,57.6-10.2,94.6-9
				c37.1,1.3,69.1-7.7,142,17.9c72.9,25.6,98.5,26.9,138.1,38.4c39.6,11.5,121.5,42.2,186.7,44.8c49.9,1.3,49.9,1.3,49.9,1.3
				l-33.3,3.8l81.9,7.7h-53.7c0,0,41.9,6.5,68.5,8.4c-20.9-0.5-56.2-1.3-68.5-2c-16.4-1,25.7,8.7,48.9,11.9
				c-62.4-4.8-87.3-9.3-87.3-9.3s72.7,16.4,98.1,19.8c-70.4-6.9-136.5-24.9-136.5-24.9s101.9,34,121.4,39
				c-88.6-20.1-112.9-32.2-112.9-32.2l81,47.7l-156.9-74.2l113.4,66.5l-115.1-58l77.6,57.1L1103.6,252l78.4,62.2l-114.3-67.4
				l50.7,67.4l-38.8-13.6l-5.8,2.6c0,0,0.1,0.1,0.1,0.1c2.4,3.9,28.1,12,33.8,13.9c5.8,1.9,7,3.8,13.4,5.8c6.4,1.9,8.3-7.7,8.3-7.7
				s0.6,2.6,3.8,3.8c3.2,1.3,40.3,10.2,40.3,10.2l5.1-3.2c0,0-0.6-3.2-1.3-3.8c5.1,2.6,42.8,15.3,42.8,15.3l6.4-6.4
				c0,0-7.7-6.4-2.6-5.1c5.1,1.3,42.8,12.2,42.8,12.2l7.7-5.1l-3.2-6.4l40.3,7l9-8.3l-7-8.3l40.9,1.9l9.6-10.2
				c0,0-15.3-6.4-11.5-6.4c3.8,0,30.7-3.2,30.7-3.2l9-9.6l-30.7-5.8l30.7-5.8C1392.4,278.2,1396.9,269.9,1402.7,264.1z"/>
			<g>
				<path class="st7" d="M415.5,248.6C404.2,259,400.2,262.8,399,264c-3.3,0.7-38.2,8.7-40.7,13.6c0,0-0.9,5.1-3.4,12.8
					c-7.7,6.8-39.2,6.8-40.1,59.7c-7.7,17.1-16.2,13.6-27.3,57.1C276.5,460.9,216,634,199.8,653.6c-20.5,6.8-22.2,13.6-91.2-3.4
					C94,651,94,651,94,651s9.4,27.3,35,31.5c21.1,0,46.6-6.5,56-9.2c2.4-0.7,3.7-1.1,3.7-1.1s-2.1,2.1-5.7,5.4
					c-7.7,6.9-22.7,18.9-41.1,27c-27.3,10.2-39.2,14.5-50.3,17.1c8.5,4.3,22.2,14.5,69.9-13.6c-9.4,11.1-36.7,40.1-61.4,58
					c20.5,1.7,46-6.8,51.2-13.6c-6,17.1-19.6,40.9-31.5,44.3c28.6-6,39.2-16.7,53-34.9c1.9-2.5,3.8-5,5.8-7.8
					c-1.4,2.8-3,5.8-4.7,8.8c-9.6,17.1-22.9,36.2-29.4,39.8c18.8-2.6,27.3-4.3,40.1-29.8c-6.8,14.5-11.9,20.5-12.8,25.6
					c15-5.5,24.1-17.6,28.8-27.4c0.4-0.8,0.8-1.6,1.1-2.4c-0.1,0.8-0.2,1.6-0.4,2.3c-1.8,10.1-4.7,13-4.7,13s15.3,0.9,25.6-31.5
					l-1.8,0.7l-17,7c0,0,13.6-52,9.4-37.5c-4.3,14.5-17.1,26.4-17.1,26.4l16.2-48.6c0,0-21.9,33.4-28.3,43.9
					c6.6-14.5,29.3-74.7,24-60.9c-5.3,13.5-20.5,29.7-39.8,50.9c13.9-18.7,33-56.9,33-56.9s-9.6,7.7-17.2,14
					c8.6-10.4,18.1-26.8,18.1-26.8s-4,1.4-12.6,2.9c11.7-5.5,20.3-13,27.5-17.8c15.3-10.2,32-49.9,32-49.9s17.9-12.8,23-23
					c5.1-10.2-2.6-30.7-2.6-30.7s10.2-14.1,24.3-37.1c14.1-23,5.1-42.2,5.1-42.2s20.5-20.5,28.1-40.9s-2.3-65,0.9-73.3
					c11.6-30.8,49.1-45,50.3-45.6c29.3-16.6,56.8-56.2,56.8-56.2l10.5-17.7l5.7-22.2l2.6-10C453,200.8,428.3,218.7,415.5,248.6z"/>
			</g>
		</g>
	</g>
	<g>
		<g>
			<g>
				<path class="st3" d="M645.5,170c0.1,0.1,0.2,0.3,0.4,0.4c0,0,0,0,0,0C645.8,170.3,645.7,170.1,645.5,170
					C645.5,170,645.5,170,645.5,170z"/>
				<path class="st3" d="M648,173.8c0.6,1.4,1.1,3.1,1.5,5.1c0-0.4,0.1-0.8,0.2-1.2C650.3,173.7,649.8,172.4,648,173.8z"/>
				<path class="st3" d="M633.3,223.1c0.7-0.2,1.3-1.9,1.4-3.6c0-0.7,0.1-1.5,0.3-2.4c-0.6,0.1-1.8,0-3.1-0.4c0,0.5-0.1,1.1-0.3,2.1
					c-0.4,1.6-0.8,3.5-1,4.2c-0.1,0.7-0.5,1.6-0.9,2c-0.8,0.8-0.9,1.4-0.6,1.7c0.2,0.1,0.3,0.1,0.4,0.2c0.4,0.1,1-0.1,1.7-0.4
					c1.2-0.6,1.9-1.6,1.5-2.1C632.4,224,632.7,223.4,633.3,223.1z"/>
				<path class="st3" d="M625.3,186.6c-0.6-1.5,0-1.9,2.5-1.7c0,0,0,0,0.1,0c0,0,0.1,0,0.1,0c3.9,0.3,4,0.7,1.3,3.7
					c-0.7,0.7-1.1,1.3-1.3,1.9c0,0.2-0.1,0.4-0.1,0.6c0,0.9,0.6,1.6,2.1,2.2c0.9-1.1,1.1-1.1,1,0.4c1,0.4,2.2,0.7,3.7,1.1
					c2.3,0.6,3.9,0.9,4.9,0.9c0.2-0.1,0.4-0.2,0.7-0.2c0.3,0,0.7-0.1,0.9-0.2c0.2-0.1,0.4-0.3,0.5-0.5c0.1-0.1,0.1-0.2,0.2-0.2
					c0,0,0-0.1,0-0.1c0-0.6-1.9-0.9-4.3-0.7c-3,0.2-4.3-0.1-4.3-1.1c0-0.7,0.4-1.7,1-2c1.1-0.7,0.2-4.9-1.1-4.9c-0.5,0-1,1-1,2.2
					c0,1.2-0.5,1.9-1,1.5c-0.6-0.4-0.7-1.6-0.2-2.9c1-2.8,0.2-8.6-1-7.8c-0.6,0.4-1,0.2-1-0.4c0-0.5,0.7-1.3,1.6-1.6
					c2.1-0.8,2.1-2.8,0-2.8c-0.9,0-2.1,1.2-2.8,2.7c-1.8,3.9-3.4,3.3-2.7-1.1c0.4-2.6,0.2-3.8-0.6-3.7c-0.9,4.7-0.7,15,0.6,15.8
					C625.7,188.4,625.8,187.8,625.3,186.6z"/>
				<path class="st3" d="M642.9,151.4c-0.3,0-0.9-0.3-1.5-0.7c0,0.3,0.1,0.5,0.1,0.8C642.4,151.4,643.2,151.4,642.9,151.4z"/>
				<path class="st3" d="M644.4,168.4c0.8-0.1,1.8-0.5,3.3-1.1c2.3-1,4.2-2.4,4.2-3.2c0-0.8-1.3-0.6-3.2,0.6
					c-1.8,1.1-3.2,1.5-3.2,0.8c0-0.8,0.5-1.3,1.3-1.3c0.8,0,1.3-0.5,1.3-1.3c0-0.7-0.9-1.3-1.9-1.3c-1,0-1.9,0.7-1.9,1.5
					c0,0.4-0.3,0.4-0.9,0c0.3,1.8,0.6,3.2,0.6,3.8C643.9,167.3,644.1,167.8,644.4,168.4z"/>
				<path class="st3" d="M625.1,208.1c-0.2-0.1-0.4-0.1-0.5-0.1l0.7,1.4c0.7,1.5,1.4,2.7,2,3.7c-0.1-0.3-0.2-0.7-0.2-1.1
					C626.8,210.1,625.9,208.4,625.1,208.1z"/>
				<path class="st3" d="M626.8,164.5c0-0.7-0.9-0.5-2.3,0.3c0.2,0.7,0.4,1.1,0.6,1.4C626.1,165.6,626.8,164.9,626.8,164.5z"/>
				<path class="st0" d="M664.5,199.4c-3.6,0.3-5.1-0.1-5.1-1.3c0-0.9,0.5-2,1.2-2.4c1.4-0.8,0.3-5.8-1.3-5.8
					c-0.6,0-1.2,1.2-1.2,2.6c0,1.4-0.6,2.3-1.2,1.9c-0.7-0.4-0.8-1.9-0.2-3.5c1.2-3.3,0.3-10.3-1.2-9.3c-0.7,0.4-1.2,0.2-1.2-0.5
					c0-0.6,0.9-1.6,1.9-1.9c2.6-1,2.6-3.4,0-3.4c-1.1,0-2.6,1.4-3.4,3.2c-1.1,2.4-2.2,3.4-2.8,3.1c0.3,1.8,0.5,3.9,0.7,6.1
					c0.2,2.2,0.5,4.4,0.7,6.3c0.1-0.6,0.2-1.2,0.2-1.9c0-2.2,0.6-3.8,1.3-3.8c1.2,0,0.8,4.5-0.8,9.9c0,0.7-0.1,1.4-0.4,1.8
					c-0.1,1.7,1.2,1.3,3.2-1.1c1.7-2.1,1.8-2,1.4,1.2c-0.3,1.9,0,3.9,0.6,4.3c1.7,1.1,1.1,3.1-0.9,3.1c-1.1,0-1.9,1.1-1.9,2.6
					c0,1.4-0.6,2.6-1.2,2.6c-0.8,0-0.8-1.5,0-4.1c0.9-2.9,0.8-4.4-0.3-5.1c-0.9-0.6-1.7-0.9-2.3-1c-0.2,0.7-0.3,1.5-0.4,2.3
					c0.2,0.1,0.4,0.1,0.5,0.1c0.6,0,0.3,0.7-0.7,1.7c0,0.1,0,0.2,0,0.3c-0.1,3.1-0.8,6.1-1.5,6.8c-0.1,0.1-0.2,0.2-0.3,0.3l1.7,3.6
					c2.5,5.3,4.5,7.8,6.1,7.8c2,0.1,2.2,0.7,1.5,3.6c-0.5,1.9-1,4.2-1.2,5.1c-0.2,0.9-0.6,1.9-1.1,2.4c-1.9,1.9-0.7,3.1,1.8,1.8
					c1.4-0.8,2.3-1.9,1.9-2.5c-0.4-0.6,0-1.3,0.8-1.6c0.8-0.3,1.6-2.2,1.7-4.3c0.2-2.1,0.7-5.7,1.3-8.1c0.7-3.3,0.6-4.1-0.6-3.3
					c-1.1,0.7-1.3,0.3-0.7-1.6c0.5-1.4,0.2-3-0.6-3.5c-1-0.6-0.7-1.7,0.8-3.3c1.2-1.3,1.8-2.8,1.4-3.3c-0.4-0.4-0.8-0.1-0.8,0.6
					c0,0.8-0.7,1.5-1.5,1.5c-0.8,0-1.1-0.4-0.6-0.8c0.5-0.5,0.3-1.5-0.4-2.4c-0.9-1.1-0.7-2,0.7-3.2c1.7-1.4,2.3-1.3,3.8,0.8
					c1.6,2.2,1.8,2.2,1.9,0.2c0-1.3,0.9-2.2,2-2.2c1,0,1.9-0.6,1.9-1.2C669.7,199.6,667.4,199.2,664.5,199.4z"/>
				<path class="st0" d="M646.4,233.6c0,1.1-1.2,3.1-2.6,4.3c-1.7,1.5-2.6,1.8-2.6,0.8c0-0.9-0.4-1.3-1-1.2c-0.6,1-1.5,1.9-2.7,2.6
					c-0.1,0.3-0.3,0.6-0.4,0.9c-0.7,1.8-0.6,2.5,0.2,2.1c1.5-0.9,1.6-0.4,0.5,2.4c-0.5,1.2-1.2,1.8-1.8,1.4
					c-0.4-0.3-1.4-0.1-2.5,0.2c3,1.8,1.9,3.1-2,2.4c-1-0.2-1.9-0.2-2.6-0.1c-0.4,0.3-0.6,0.6-0.6,0.9c0,0.5,0.9,1,1.9,1
					c1,0,1.9,0.5,1.9,1.2c0,0.8-0.7,1-1.6,0.8c0.1,0.4,0.2,0.8,0.1,1.2c-0.2,2.1-0.2,2.1-2-0.1c-1.1-1.3-2.1-1.8-2.5-1.2
					c-0.4,0.6-0.2,1.1,0.4,1.1c0.6,0,0.8,0.7,0.5,1.6c-0.3,0.9-1.1,1.3-1.6,1c-0.5-0.3-1.3,0.4-1.6,1.5c-0.1,0.4-0.3,0.8-0.4,1
					c0.7,0.9,1.7,1.5,2.5,1.6c4.9,0.4,5,0.5,3.5,3.1c-1.1,2-1,2.6,0.6,2.6c1.1,0,2-1.1,2-2.6s0.6-2.6,1.3-2.6c0.7,0,1.3-0.9,1.3-1.9
					c0-2.3-2.1-2.5-3-0.3c-0.4,0.9-0.6,1-0.7,0.3c0-0.7,1.1-2.7,2.5-4.4c2-2.4,2.9-2.7,4.1-1.5c1.2,1.2,1.1,1.8-0.4,2.7
					c-2.3,1.5-0.3,1.4,3.2-0.1c1.4-0.6,1.8-1.1,1-1.2c-0.9,0-1.6-0.7-1.6-1.5c0-0.8,0.9-1.1,2.2-0.6c1.2,0.4,1.8,0.4,1.3-0.1
					c-0.5-0.5-0.1-1.8,0.7-2.8c1.4-1.7,1.2-1.7-1.3-0.4c-3.9,2-4.9,0.9-3-3.2c1.8-4,1.9-6,0.2-5c-0.8,0.5-1.3,0.3-1.3-0.5
					c0-1.6,1.3-1.7,3.6-0.3c0.9,0.6,1.3,2,0.8,3.2c-0.5,1.2-0.3,2.1,0.4,2.1c0.7,0,1.6-2.3,2.1-5c0.5-2.7,1.4-5.2,2.1-5.4
					c0.8-0.3,0.8-1.1,0-2.4C646.6,231.8,646.4,231.8,646.4,233.6z"/>
				<path class="st3" d="M496.4,185c0.4-0.2,0.7-0.3,1-0.4C497,184.7,496.7,184.8,496.4,185z"/>
				<path class="st3" d="M474.3,216.7c-0.3,0-0.6,0.1-0.8,0.4c0.3,0.9,0.2,2.7-0.9,4.5c-1.4,2.4-2.3,4.6-2.1,5.2
					c0.6-0.7,1.1-1.4,1.6-2.1c0.1-1.6,0.7-3.5,3-6.3c0.1-0.1,0.1-0.2,0.2-0.3C475.4,217.3,475.1,216.7,474.3,216.7z"/>
				<path class="st3" d="M468.7,240.6c-0.2,0.3-0.3,0.6-0.5,0.9c-0.2,1.4-0.4,2.6-0.8,3.4c0.4-0.3,1.1-0.9,1.9-1.9
					c0.7-2.3,1.6-4.8,2.3-6.2C470.7,237.5,469.6,238.8,468.7,240.6z"/>
				<path class="st0" d="M583.6,266.4l0.1-0.2C583.5,266.3,583.5,266.4,583.6,266.4z"/>
				<path class="st0" d="M496.4,219.2c0.8,0.3,0.8,1.1-0.2,2.2c-1.1,1.3-1.1,2.3-0.1,3.5c0.8,0.9,1,2.7,0.6,3.8
					c-0.4,1.2-0.1,2.1,0.6,2.1c0.7,0,1.4-1,1.4-2.2c0-3.2,7.7-10.2,9.5-9.2c0.9,0.5,1.1,0.5,0.6-0.1c-0.5-0.6-0.3-1.9,0.7-3.1
					c1.2-1.6,0.7-1.5-2.2,0.4l-3.9,2.4l3.1-3.3c1.7-1.8,3.5-3.1,3.9-2.8c0.5,0.3,2.3-0.2,4.2-1.2c3-1.5,3.5-1.5,4.2,0.3
					c0.6,1.7,1,1.6,2.5-0.4c2.1-2.8,0.2-4.7-3.6-3.6c-1.2,0.3-2.2,0-2.2-0.7c0-0.7-0.9-1.4-1.9-1.4c-1.1,0-1.9-0.8-1.9-2
					c0-1.2-0.5-1.7-1.3-1.2c-2,1.2-1.6,4.5,0.6,4.5c1,0,1.9,0.8,1.9,1.7c0,1.1-1.4,1.6-4.5,1.3c-2.4-0.2-4.5,0.2-4.5,0.9
					c0,0.7,0.5,1.2,1.2,1.2c0.7,0-0.3,1.5-2.1,3.3c-1.8,1.8-4.9,2.4-5.2,2.1c-1-1,2.3-6.7,3.6-6.7c0.6,0,1.2-0.9,1.2-1.9
					c0-2.2-3.5-3.4-4.2-1.4c-0.3,0.9-1.1,0.9-2.4,0.1c-1.6-1-1.5-1.2,0.4-1.2c1.4,0,2-0.6,1.4-1.5c-0.5-0.9-0.3-1.1,0.6-0.6
					c0.8,0.5,2.9,0.7,2.9-0.5c0-3-3.4-3.1-6.3,0.6c-2.1,2.7-2.3,4-1.3,8.7C494.6,216.2,495.8,218.9,496.4,219.2z"/>
				<path class="st0" d="M526.9,241c-0.9,0.2-1.5-0.6-1.4-1.6c0.5-3.3-6.2-2.5-10.1,1.3l-3.5,3.4l2.9,0c1.9,0,2.8-0.5,2.4-1.6
					c-0.3-0.9,0-1.9,0.7-2.4c0.7-0.4,1.6,0.4,2.1,1.8c0.8,2.7,3.2,3.6,3.2,1.3c0-0.8,0.5-1.3,1.3-1.3c0.7,0,1.3,1,1.3,2.2
					c0,1.9,0.2,2,1.3,0.3C528.8,242,528.7,240.6,526.9,241z"/>
				<path class="st3" d="M709.6,458.3c0.6,0,1,0,1,0V455L709.6,458.3z"/>
				<path class="st3" d="M592.8,571.7c0,0,0.5-0.2,1.4-0.6l-5.2-2.1C592.8,571.7,592.8,571.7,592.8,571.7z"/>
				<path class="st3" d="M588.9,167.5c0.8,0,1.7,0,2.5,0C590.5,167.5,589.7,167.5,588.9,167.5z"/>
				<path class="st3" d="M622.6,136.4c-0.2,0.3-0.3,0.7-0.5,1c0.1-0.1,0.2-0.1,0.3-0.2C622.5,137,622.6,136.7,622.6,136.4z"/>
				<g>
					<path class="st0" d="M605.2,261.5c1.4,0,1.7-1.9,0.9-3.6c-0.4,0.2-0.9,0.4-1.2,0.5c-0.1,0.2-0.2,0.5-0.3,0.9
						C604.1,260.5,604.4,261.5,605.2,261.5z"/>
					<path class="st0" d="M611,255.1c0.5-0.8,0.7-1.4,0.5-1.6c-0.4-0.4-0.7-0.2-0.7,0.5c0,0.4-0.7,1.2-1.8,2
						C609.5,256.3,610,255.9,611,255.1z"/>
					<g>
						<path class="st0" d="M605.2,261.5c1.4,0,1.7-1.9,0.9-3.6c-0.4,0.2-0.9,0.4-1.2,0.5c-0.1,0.2-0.2,0.5-0.3,0.9
							C604.1,260.5,604.4,261.5,605.2,261.5z"/>
						<path class="st0" d="M611,255.1c0.5-0.8,0.7-1.4,0.5-1.6c-0.4-0.4-0.7-0.2-0.7,0.5c0,0.4-0.7,1.2-1.8,2
							C609.5,256.3,610,255.9,611,255.1z"/>
						<g>
							<path class="st0" d="M605.2,261.5c1.4,0,1.7-1.9,0.9-3.6c-0.4,0.2-0.9,0.4-1.2,0.5c-0.1,0.2-0.2,0.5-0.3,0.9
								C604.1,260.5,604.4,261.5,605.2,261.5z"/>
							<path class="st0" d="M611,255.1c0.5-0.8,0.7-1.4,0.5-1.6c-0.4-0.4-0.7-0.2-0.7,0.5c0,0.4-0.7,1.2-1.8,2
								C609.5,256.3,610,255.9,611,255.1z"/>
							<g>
								<path class="st0" d="M682.1,203.9c-0.4-1.7-1.1-6.7-1.5-11.4c-1-11.3-3-18.7-5.8-21.3c-1.3-1.2-2.4-3.2-2.4-4.3
									c0-2.9-8.8-13.6-13.4-16.3c-2.2-1.3-4.3-2.9-4.8-3.7c-0.7-1-1.3-0.9-2.1,0.4c-1,1.5-2.3-3.4-7.4-5.2
									c-0.8-0.3-1.6-0.5-2.3-0.7c0.7-6.2-8.2,0.1-7.7-0.4c4.6-5.2,2.6-7.8-1.9-3.5c-1.1,1-0.1,0.1-4.3-1.4c-1.9-0.7-4-0.2-5.9,0.9
									c-0.1,0.1-0.2,0.1-0.3,0.2c-5.3,3.3-9.4,11.5-6.9,13.8c1.6,1.5,3.4,2.7,4,2.7c0.6,0,0.8,0.4,0.8,1.3c0,1.7-5.3,3.6-7.2,2.4
									c-0.9-0.5-1-0.4-0.5,0.4c0.4,0.7,1.4,1.2,2.2,1.2c0.7,0,1.8,0.8,2.8,1.8c-3.6,6.9-5.8,8.3-11.3,8.3c-0.5,0-1,0-1.5,0.1
									c0.6-1.2,0.5-2.3-0.1-3c-0.9-1.1-2-7.3-2.2-12c0-0.6-1.4,1.8-3.1,5.3c-3.7,7.8-5.4,9.3-10.5,9.3c-2.2,0-4.7,0.5-5.4,1.1
									c-0.9,0.7-1.8,0.7-2.8-0.1c-0.7-0.6-1.7-0.9-2.1-0.5c-0.2,0.2-0.8,0.4-1.6,0.6c-0.8-0.2-1.5-0.4-2-0.6
									c-1.8-0.9-3.9-1.7-4.9-1.7c-1.8,0-5.5-7.6-4.5-9.3c1.2-2-1.8-0.9-3.9,1.4c-1.5,1.6-2.3,2.3-6.6,2.5c-0.3-1-0.4-1.9-0.2-2.3
									c0.3-0.4,0.3-0.7,0.2-0.8l-7.2,3.2c-1.3,0-2.7,0-4.3,0c-12.6,0-12.6,0-11.7-2c0.8-1.9-3.4-4-6.7-3.3c-1,0.2-2.3-0.4-2.9-1.4
									c-0.8-1.3-2-0.6-4.8,2.7l-3.7,4.4l0.7-3.7c0.5-2.7,0.2-3.5-1.1-3c-1,0.4-2,1.8-2.2,3.3c-0.3,1.8-1,2.5-2.2,2
									c-2.7-1.1-2.4,2.3,0.4,4.7c6.1,5,11.6,7.1,17.8,6.6l-1.2,1.1c-1.8,1.6-3.1,3.5-2.9,4.3c0.2,0.7-0.2,1.4-0.9,1.4
									c-0.6,0-0.9-0.5-0.5-1.1c0.4-0.6,0.2-1.1-0.5-1.1c-0.6,0-1.1,0.5-1.1,1.1c0,0.6-0.7,1.1-1.5,1.1c-0.9,0-2,0.8-2.6,1.9
									c-0.6,1.1-1.1,1.5-1.1,1.1c0-0.4-1.2-0.3-2.6,0.2c-1.4,0.6-2.7,0.4-3.6-0.1c0.1-0.5,0.4-1.1,0.9-1.7
									c2.2-2.6,0.5-2.4-1.9-0.5c0.1-0.5,0.3-0.9,0.7-1.4c2.3-2.7-0.6-1.7-3.3,1.2l-2.6,2.8l2.3-0.7c0.4-0.1,0.8-0.2,1.1-0.3
									c-0.1,0.1-0.2,0.2-0.3,0.3l-3.1,3.3l2.8-0.8c0.1,0,0.1,0,0.2-0.1c-0.8,0.8-1.5,1.9-1.8,2.5c-0.5,1.1-0.8,1.1-1.3,0
									c-0.2-0.5-1-0.9-2-1.1c0.1-0.5-0.1-1.1-0.7-1.8c0,0-0.1-0.1-0.1-0.1c1.4-0.3,1.7-1.3,0.6-2.4c-0.7-0.7-4.3,1.1-6.7,3.4
									c-1.1,1-1.2,1.4-0.5,2c-0.5,0.4-0.9,0.7-1.3,1.1c-0.5,0.5-0.9,0.9-1,1.2c-0.5,0.4-1,0.8-1.4,1.3c-1.2,1.5-2.1,1.9-2.6,1.2
									c-0.4-0.6,0.1-1.9,0.9-2.7c2.2-2.2,2-2.6-1.1-2.1c-1.5,0.3-2.7,1.1-2.7,1.9c0,0.4-0.2,1-0.5,1.5c-0.1,0-0.1,0-0.1,0
									c-1.8,0.3-3.2,1.3-3.2,2.3c0,0.9-0.8,2.5-1.6,3.4c-0.6,0.6-1.8,2-3.1,3.5l-1.9-2.2c-1.2-1.4-1.9-2.8-1.5-3.2
									c0.3-0.3,0.1-0.6-0.6-0.6c-0.6,0-1.2,1.3-1.1,2.9c0,1.4-0.9,4.4-2.1,7.1l-0.6-0.7c-1.4-1.7-2.2-3.4-1.8-3.8
									c0.4-0.4,0.1-0.8-0.7-0.8c-0.8,0-1.4,1.6-1.4,3.5c0,1.9-1.5,6.5-3.3,10.1c-1.8,3.6-3.4,7.5-3.4,8.6c0,1.2-0.5,2-1.2,2
									c-0.7,0-1.4,0.7-1.7,1.6c-0.3,0.9-0.3-0.1-0.1-2.2c0.5-3.8,0.5-3.8-1.5-1c-1.3,1.9-1.6,3.5-0.9,4.9c0.6,1.1,2.2,7,2,12.3
									c-0.5,9.4-0.1,10.3,3.8,9.7c0.5-0.1,0.4,1.3-0.3,3c-0.8,2-0.7,3.3,0.2,3.6c0.8,0.3,1.4,2.1,1.4,4.2c0,3.3,0.2,3.5,1.6,1.5
									c0.9-1.3,1.6-5.6,1.6-9.8c0-4.5,0.6-8.4,1.6-9.5c1-1.2,1.4-2.3,0.9-2.8c-0.3-0.3,0.1-1.5,0.8-3.1c0.4,0,0.3,1.1-0.2,2.5
									c-0.6,1.7-0.6,2.7,0.2,3c0.3,0.1,0.6,0.5,0.8,1c-0.6,0.2-1.2,1.3-1.6,2.5c-0.4,1.7,0,2.6,1.2,2.6c1.5,0,1.5,0.6,0.4,2.6
									c-0.8,1.5-2.2,5.2-3.2,8.4c-1.5,5-1.5,5.9,0,6.5c1,0.4,1.8,1.6,1.8,2.8c0,2.9,3.1,6.7,5.5,6.7c2.4,0,2.3,4.2-0.2,8.7
									c-1.2,2.2-1.3,3.5-0.3,4.5c0.8,0.8,1.4,2.4,1.4,3.7c0,3.4,1.9,2.8,3.5-1.1l1.4-3.6l0.2,3.8c0.1,2.2,0.9,4.8,1.8,6.1
									c1.6,2.1,1.9,2,6-1.9l4.4-4.2l1.1,4.7l1.1,4.7l2.3-2.7l2.3-2.7l0.2,3.2c0.1,1.8,0.1,3.6,0,4.1c-0.1,0.5,0.8,0.6,1.8,0.2
									c1.1-0.4,2-1.7,2-2.8c0-1.4,0.5-1,1.3,0.9c0.8,1.9,1.9,2.8,3.1,2.3c1.5-0.5,1.9,0.2,1.9,3c0,4.7,0.5,4.8,4.5,0.3
									c1.7-1.9,3.1-2.8,3.1-2c0,0.8-0.8,2.2-1.8,3c-1.5,1.2-1.5,2-0.3,4c2.2,3.5,4.6,3,5.5-1.1c1.5-6.7,1.7-6.8,4.1-4.5
									c1.3,1.2,2.2,2.7,2,3.2c-0.3,0.5,0.1,1.2,0.8,1.7c0.7,0.4,1.3,1.7,1.3,3c0,1.3,1,2.3,2.6,2.4c1.9,0.2,2.6-0.6,2.6-2.9
									c0-4.2,2.1-5.1,3.1-1.3c0.5,2.1,1.7,3.2,3.3,3.2c1.5,0,2.3,0.7,1.9,1.7c-0.8,2.2,4,6.8,5.1,4.9c0.5-0.8,2-1.4,3.4-1.4
									s2.5-0.5,2.5-1.2c0-0.7-1.1-1.1-2.6-1c-1.4,0.1-2.6,0.6-2.6,1.1c0,0.5-0.9,0.6-1.9,0.2c-1-0.4-1.9-1.3-1.9-1.9
									c0-0.7,0.6-0.9,1.3-0.4c0.7,0.5,2.4-0.5,3.8-2.2c1.5-1.8,2.1-2.4,2.3-1.9c0,0.3,0.1,0.5,0.1,0.7c0,0.1,0,0.3,0,0.4
									c0,1.9,0.8,2.5,2.9,2.2c0.2,0,3,0.8,6.2,1.8c3.3,1,7,1.4,8.5,0.8c2.3-0.9,2.8-0.4,3.5,3.4c0.4,2.4,0.5,5,0,5.7
									c-0.4,0.7,0.5,1.8,2,2.4c1.3,0.5,2,1.1,1.9,1.6l2.2-2.6c-0.1-1.4,0.4-2.6,1.1-2.6c0.8,0,1-0.5,0.5-1.3
									c-1.3-2.2-3.2-1.4-3.2,1.3c0,1.4-0.6,2.6-1.3,2.6c-2.4,0-1.3-4.7,1.8-7.5c2.2-2,3.2-2.4,3.6-1.2c0.9,2.8,4.7-2,5.1-6.4
									c0.2-2.6,0.9-3.6,2-3.2c0.9,0.3,1.7,0,1.7-0.8c0-0.8-0.6-1.4-1.4-1.4c-2.5,0,1.2-3.4,6.3-6c4.5-2.2,4.6-2.4,1.6-2.8
									c-2.2-0.3-3.9,0.5-5.7,2.5c-1.7,2-2.7,2.5-3.1,1.4c-0.3-0.9-1.3-1.6-2.2-1.6c-0.9,0-1.9-0.6-2.1-1.4c-0.3-0.8-1.5-0.6-3,0.6
									c-2.3,1.7-2.4,2.2-1,4.5c1,1.7,1.1,2.6,0.2,2.6c-0.8,0-1.6-0.8-2-2c-0.4-1.3-1.7-1.7-3.3-1.2c-0.5,0.1-0.8,0.2-1.2,0.3
									c0-0.1,0.1-0.1,0.1-0.2c0.4-0.7,0.6-1.3,0.7-1.8c0.5-0.2,0.9-0.3,1.4-0.3c1,0,1.9-0.9,1.9-1.9c0-2,7.7-6,10.5-5.4
									c1,0.2,1.5-0.6,1.3-1.9c-0.3-1.6,0.3-2,1.9-1.4c1.5,0.6,1.1-0.3-1.2-2.5c-1.9-1.8-3.5-4.3-3.5-5.3c0-1.2-0.5-2-1.3-2
									c-1.6,0-1.6,0.8-0.1,3.7c1.8,3.5,0.1,7.8-3,7.7c-2.4,0-2.5-0.2-0.4-1.3c1.3-0.7,2.3-2.1,2.3-3.2c0-1.4-0.6-1.6-2.2-0.8
									c-1.2,0.6-3.4,0.7-4.8,0.1c-1.3-0.5-2.3-0.8-2.9-1c0.3-1,0.7-1.4,1.4-1.2c0.3,0.1,0.6,0.1,0.8,0.1c0.5,0.2,1.1,0.3,1.8,0.2
									c3.8-0.5,3.7-1.4-0.4-2.9c-0.7-0.3-1.4-0.5-2-0.6c1-1,2.9-2.4,5.3-3.6c1.9-0.9,2.8-1.4,3-1.7l4.2-11.1c0,0,0.1,0,0.1,0
									c-0.1,0.7-0.2,1.5-0.2,2.3c0,1.7-0.5,3-1.2,3c-1.5,0-2.6,7.6-1.2,8.5c0.6,0.4,1,0.2,1-0.5c0-0.6,1.5-0.9,3.5-0.5
									c3.1,0.6,3.2,0.8,1,1.7c-1.4,0.6-1.8,1-0.8,1.1c1,0,1.4,0.8,1,1.9c-0.9,2.4,0.4,3.6,2.3,2c1.2-1,2-0.9,2.6,0.1
									c0.5,0.8,0.4,1.9-0.2,2.3c-2.2,1.6-1.7,3.5,0.9,3.5c1.9,0,2.3-0.8,1.9-3.2c-0.3-1.8,0.1-3.9,0.9-4.9c0.8-0.9,1-2,0.6-2.5
									c-0.4-0.4-0.8-0.1-0.8,0.6c0,0.8-0.6,1.5-1.2,1.5c-0.7,0-1.1-0.6-1.1-1.5c0.2-5.8-0.5-8.7-1.8-7.9c-1,0.6-1.2,0.2-0.6-1.2
									c0.5-1.3,0.2-1.8-0.8-1.5c-0.9,0.3-2.4,0-3.4-0.6c-1.5-0.9-1.5-1.5-0.2-3.1c0.7-0.8,0.7-1.7,0.5-2.3c0.3-0.2,0.7-0.3,1-0.5
									c0.4-0.2,0.7-0.4,1-0.5c0.1,0.4,0.2,0.8,0.2,1.1c0,0.7,1.1-0.7,1.8-2c1.6-0.7,1.7-0.3,1.4,1c-0.3,1.4,0.1,2,1.3,2
									c1.4,0,1.7-0.7,1.3-3.3c-0.1-0.6-0.1-1.3-0.1-1.8c0.1,0,0.1,0,0.1,0c0.5-0.2,0.9-0.3,1.3-0.4c0,0.1,0,0.2,0,0.3
									c0,1.7,0.4,2,1.4,1.2c1.3-1,1.6-1.1,3.7-1.3c0.4,0-0.3-0.5-1.7-1c-2.5-1-2.3-3.8,0.1-2.9c0.7,0.2,2.2,0,3.3-0.6
									c1.6-0.8,1.7-1.2,0.6-1.9c-0.7-0.5-1.1-1.2-0.7-1.6c0.4-0.4,1.4,0.1,2.3,0.9c0,0,0,0,0,0c0,0-0.1,0.1-0.1,0.1
									c-0.5,0.8-0.4,1.9,0.2,2.7c0,0-0.1,0.1-0.1,0.1c-1.7,1.4-1.9,2.2-1.2,2.2c0,0-0.1,0.1-0.1,0.1c-1.6,1.4-1.6,1.9,0,3.5
									c1,1,1.6,2.4,1.2,3c0,0,0,0.1,0,0.1c-1.8,0.4-3.5,1.5-3.9,2.4c-1,2.6-0.1,2.8,2.9,0.9c1.6-1,2.9-1.3,3.3-0.7
									c0.7,1.2-1.3,2.8-2.3,1.9c-0.9-0.9-3.7,2.4-3,3.6c0.5,0.8,1.5,0.7,3.1-0.4c0.6-0.4,1.1-0.6,1.7-0.8c0.2,0,0.3-0.1,0.5-0.1
									c0.6-0.1,1.2-0.1,1.6,0.2c1.1,0.7,1.1,1-0.1,1.4c-0.7,0.3-0.9,0.6-0.5,1.1c-0.4,0.3-0.8,0.9-1,1.7c-0.4,1.5-1.2,2.7-1.9,2.7
									c-0.7,0-1,0.4-0.8,1.1c0.2,0.6-1.1,2.3-2.9,3.8c-3,2.6-2.8,2.5,2.7-0.2c5.4-2.7,5.9-2.8,5.3-0.6c-0.4,1.7,0.1,2.4,1.6,2.4
									c1.7,0,2.1-0.8,1.6-3.9c-0.3-2.2-0.1-4.2,0.5-4.6c0.6-0.4,1.1,0.6,1.1,2.1c0,2.1,0.4,2.4,1.7,1.4c1.5-1.2,1.9-1.4,4.5-1.5
									c0.5,0-0.4-0.6-2-1.3c-2.9-1.2-2.8-4.5,0.1-3.5c0.8,0.3,2.7,0,4-0.6c1.9-1,2.1-1.4,0.7-2.3c-0.9-0.6-1.3-1.5-0.9-1.9
									c0.4-0.4,1.7,0.1,2.8,1.1c1.7,1.7,1.7,2.1,0,3.5c-3.6,3-1.8,3.7,2.7,1.1c2.4-1.4,4.5-3.3,4.5-4c0-0.8,0.4-1,0.8-0.6
									c0.5,0.4-1,2.8-3.2,5.4c-2.3,2.6-3.7,5.3-3.2,6.1c0.6,1,1.1,0.8,1.6-0.6c0.5-1.3,1.4-1.7,2.4-1.1c2.2,1.4-0.3,3.3-5.8,4.5
									c-2.2,0.5-4.3,1.8-4.8,2.9c-1.2,3.1-0.1,3.4,3.5,1.1c1.9-1.2,3.5-1.6,4-0.8c0.9,1.4-1.6,3.4-2.7,2.2
									c-1.1-1.1-4.5,2.9-3.6,4.3c0.6,0.9,1.8,0.8,3.8-0.4c1.7-1.1,3.6-1.4,4.5-0.8c1.3,0.8,1.3,1.2-0.1,1.7
									c-1.4,0.6-1.2,1.1,0.7,2.6c1.9,1.5,3.1,1.6,5.1,0.5c3-1.6,6.7-6.2,6.2-7.8c-0.2-0.5,0.6-0.9,1.6-0.9c2.3,0,2.5-1.5,0.4-3.6
									c-1.1-1.2-1.2-1.9-0.1-3c0.8-0.8,1.1-2.2,0.7-3.4c-0.5-1.4-0.1-1.8,1.3-1.2c1.4,0.5,2.2-0.1,2.7-1.8
									c0.4-1.4,1.3-2.3,1.9-1.9c0.6,0.4,1.5-0.1,1.9-1.1c0.4-1,0.1-1.9-0.6-1.9c-0.8,0-1-0.5-0.5-1.3c0.4-0.7,1.7-0.1,3,1.4
									c2.2,2.7,2.2,2.7,2.4,0.1c0.1-1.4-0.6-2.9-1.6-3.3c-3.9-1.5-1.9-3.7,2.6-2.8c5,1,6.1-0.9,1.9-3.2c-4-2.2-3.1-4.5,2.6-6.7
									c3.3-1.3,5.6-3.2,6.4-5.4c0.7-1.9,1.9-3.1,2.6-2.6c0.7,0.4,1.3,0,1.4-0.9c0.1-0.9,0.4-4,0.7-6.8c0.3-2.8,0.6-6.4,0.7-8
									c0-1.5,0.6-2.9,1.2-2.9c0.6,0,1.2-1,1.2-2.3c0-1.3,0.7-3,1.5-3.8c0.8-0.8,1.6-4.4,1.8-8.1c0.2-3.7,1.1-7.1,2-7.6
									C682.2,207.3,682.5,205.7,682.1,203.9z"/>
								<path class="st5" d="M600,142.1c3.8,0.2,12.2-2.4,12.2-3.8c0-0.7-0.1-1.1-0.3-1c-0.2,0.1-3.5,1.2-7.4,2.4
									C600.7,140.9,598.6,142,600,142.1z"/>
								<path class="st5" d="M551.5,155.3c1.5-0.4,3.5-1.5,4.3-2.5c2.2-2.7-0.6-2.2-4.1,0.6C548.6,156,548.6,156,551.5,155.3z"/>
								<path class="st5" d="M541.8,158.6c1.2,0,2.5-0.5,2.9-1.2c0.9-1.5,0.9-1.5-2.6,0C540.2,158.3,540.1,158.5,541.8,158.6z"/>
								<path class="st0" d="M496.2,172c-2.7,1.4-4.8,3-4.8,3.6c0,0.6-0.4,2.2-0.8,3.3c-1.2,3,12.4-3.8,14.3-7.3
									c1.3-2.4,1.2-2.5-0.7-1c-1.8,1.5-1.1-0.7-1.1-2.4c0-2.6-3.7-3.2-8.1-0.5c-4,2.5-4.9,5-1,2.9c1.3-0.7,3.5-1.3,4.8-1.2
									C500.2,169.5,499.3,170.4,496.2,172z"/>
								<path class="st0" d="M486.1,185.7c1.9-2,2.2-3.1,1.1-3.8c-1.2-0.8-1.1-1.5,0.5-3.3c5-5.8,4.2-7.5-1-2.1
									c-3.3,3.6-4,5.5-1.8,5.5c0.7,0,0.4,1.4-0.8,3.2C481.5,189.3,482.6,189.5,486.1,185.7z"/>
								<path class="st0" d="M482.4,181.4c0-1.1-1-0.5-2.7,1.7c-1.6,2-1.6,2.1,0.4,0.6C481.4,182.6,482.4,181.7,482.4,181.4z"/>
								<path class="st0" d="M457.9,205.1c2.4-2.9,3.3-5.1,2.1-5.1c-0.3,0-1.1,0.7-1.7,1.6c-0.7,0.9-1.6,2.8-2.1,4.2
									C455.5,207.8,455.8,207.7,457.9,205.1z"/>
								<path class="st0" d="M455.5,211.8c0.9-0.9,1.3-1.9,0.8-2.3c-0.4-0.4-1.1,0.3-1.6,1.6C454.1,212.9,454.3,213.1,455.5,211.8z"
									/>
								<path class="st0" d="M594.9,271.7c-1.1-1.7-1.2-1.7-1.2,0.3c0,1.2,0.6,2.6,1.3,3C596.6,276,596.6,274.3,594.9,271.7z"/>
								<path class="st0" d="M602.3,278.9c0.4-0.4-0.4-0.7-1.7-0.6c-1.5,0.1-1.8,0.4-0.8,0.8C600.7,279.4,601.8,279.4,602.3,278.9z"
									/>
								<path class="st0" d="M650.8,279.7c-0.4,0.7-0.2,1.3,0.6,1.3c0.8,0,1,0.6,0.6,1.3c-0.6,1-1.4,0.9-2.6-0.1
									c-1.3-1.1-1.8-1.1-1.8-0.1c0,0.8,0.7,1.4,1.6,1.4c1.1,0,1,0.4-0.3,1.3c-1,0.7-1.3,1.3-0.5,1.3c1.8,0,5.7-4.2,5.7-6.1
									C653.9,278.1,651.8,277.9,650.8,279.7z"/>
								<path class="st5" d="M466.3,279.7c-0.5,0.5-0.9,2-0.8,3.6c0,2.4,0.2,2.5,1.4,0.4C468.3,281.2,467.8,278.1,466.3,279.7z"/>
								<path class="st0" d="M574.9,280.8c-1.5,0.1-1.8,0.4-0.8,0.8c0.9,0.3,2,0.3,2.4-0.1C577,281,576.2,280.7,574.9,280.8z"/>
								<path class="st0" d="M623.8,282.1c-0.5-0.8-1-1.3-1.3-1.3c-0.3,0-0.6,0.5-0.6,1.3c0,0.7,0.6,1.3,1.3,1.3
									C624,283.4,624.2,282.8,623.8,282.1z"/>
								<path class="st0" d="M607.2,285.9c-0.3,0-0.9,0.5-1.4,1.3c-0.4,0.7-0.2,1.3,0.6,1.3c0.8,0,1.3-0.5,1.4-1.3
									C607.7,286.4,607.5,285.9,607.2,285.9z"/>
								<path class="st0" d="M609.6,295.7c1.7-1.2,4.6-2.1,6.4-2.1c1.8,0,3.3-0.4,3.3-1c0-1.8-4.5-5-6.1-4.4
									c-0.9,0.3-1.5,1.4-1.5,2.4c0,1-0.8,2.2-1.8,2.6c-1,0.4-2.1,1.5-2.6,2.7C606.5,297.6,606.7,297.6,609.6,295.7z"/>
								<path class="st0" d="M587.8,296.1c-0.5,0.8,0,1,1.2,0.5c2.2-0.8,2.6-1.8,0.8-1.8C589.1,294.8,588.3,295.3,587.8,296.1z"/>
								<path class="st0" d="M624.6,298.5c-1.2,0.4-2.9,1.7-3.6,2.7c-1,1.3-2.1,1.5-3.6,0.6c-1.9-1.1-1.9-1.5-0.2-2.9
									c1.2-0.9,2-2.1,2-2.9c0-0.7-0.8-0.7-1.8,0.2s-2,0.9-2.2,0.2c-0.2-0.7-1.8-0.1-3.5,1.2c-1.7,1.3-3.5,2.1-4,1.8
									c-1.2-0.7-5.8,4.3-4.9,5.2c0.6,0.6,5.8-1.6,7.4-3.3c2.5-2.4,5.3,1.6,5.3,7.3c0,2.3,4.1,5.6,5.4,4.3c0.9-0.9,0.8-1.7-0.3-2.9
									c-1.3-1.3-1.4-1.1-0.7,0.8c0.6,1.7,0.4,2.1-0.6,1.5c-2.7-1.7-1.4-5.2,2.7-7.1C626.5,303.1,628.9,296.9,624.6,298.5z"/>
								<path class="st0" d="M603.9,298.7c0.8,0,1-0.5,0.6-1.3c-0.5-0.8-1-1.3-1.3-1.3c-0.3,0-0.6,0.5-0.6,1.3
									C602.6,298.1,603.1,298.7,603.9,298.7z"/>
								<path class="st0" d="M501.2,304.7c-0.7,0-1.3,0.6-1.3,1.3c0,0.8,0.5,1,1.3,0.6c0.8-0.5,1.3-1,1.3-1.3S502,304.7,501.2,304.7
									z"/>
								<path class="st0" d="M605.7,309.4c1-0.4,1.9-0.9,1.9-1.1c0-0.2-0.9-0.7-1.9-1.1c-1.2-0.4-1.9,0-1.9,1.1
									C603.8,309.4,604.6,309.8,605.7,309.4z"/>
								<path class="st0" d="M591.6,309.4c-1.4,1-1.8,2-1,2.5c0.7,0.4,2.1-0.1,2.9-1.1C595.8,308.2,594.6,307.3,591.6,309.4z"/>
								<path class="st0" d="M610.9,310.6c-0.5,1.3-1.8,2.2-3,2.2c-4.4,0-11.6,2.6-12.3,4.4c-0.6,1.5-0.3,1.7,1.8,0.6
									c1.4-0.7,5.8-1.2,9.6-1.1c3.8,0.2,7.3,0.1,7.5-0.2c0.3-0.3-0.2-2.2-1.1-4.4C612,309,611.6,308.7,610.9,310.6z"/>
								<path class="st0" d="M587.1,311.5c-0.7,0-1.5,0.5-1.9,1.3c-0.5,0.8,0,1,1.2,0.5C588.5,312.4,588.9,311.5,587.1,311.5z"/>
								<path class="st0" d="M518.7,313.3c-0.5,0.5-0.8,1.4-0.8,2.2c0,0.8,0.6,0.7,1.5-0.2c0.9-0.9,1.3-1.8,0.8-2.2
									C519.8,312.7,519.2,312.8,518.7,313.3z"/>
								<path class="st0" d="M511.7,318.2c0,2.2,0.3,2.9,0.6,1.6c0.4-1.3,0.4-2.9,0-3.8C512,315,511.7,316,511.7,318.2z"/>
								<path class="st0" d="M564,322.1c0-1.7-0.8-2-3.6-1.4c-2.1,0.4-4.3,0.1-5.1-0.7c-2.5-2.5-5-2.1-6.5,1.1c-1.3,2.8-1.2,3,1,1.8
									c2.8-1.5,6.5-0.6,6.5,1.6c0,0.9,0.5,0.9,1.5-0.1c2.2-2.2,3.7-1.9,2.7,0.5c-0.5,1.4-0.3,1.9,0.6,1.3c1-0.6,1.5-0.1,1.5,1.5
									c0,1.4,1,2.4,2.6,2.6c3.1,0.2,3.3-1.3,0.7-4C564.9,325.2,564,323.3,564,322.1z"/>
								<path class="st0" d="M579.5,321.2c-1.5,1.7-1.5,2.3-0.1,3.1c1.1,0.7,2.3,0.3,3.2-0.9c0.8-1.2,2.1-1.7,2.8-1.2
									c0.7,0.4,1.7-0.1,2.1-1.1C588.6,318.4,581.9,318.5,579.5,321.2z"/>
								<path class="st5" d="M593.7,143.2c0-0.6-0.1-0.9-0.3-0.9c-0.1,0.1-2.9,1-6.1,2c-3.2,1-4.9,2-3.7,2
									C586.7,146.5,593.7,144.3,593.7,143.2z"/>
								<path class="st5" d="M526.9,153.9c1.3,1,1.6,1,1.6-0.4c0-1-0.7-1.7-1.6-1.7c-0.9,0-1.6,0.2-1.6,0.4
									C525.3,152.5,526.1,153.3,526.9,153.9z"/>
								<path class="st0" d="M572.4,330.7l-0.2,0.2C572.3,330.9,572.3,330.8,572.4,330.7z"/>
							</g>
						</g>
					</g>
				</g>
				<path class="st3" d="M579.6,167.1c0.2,0,0.3,0,0.5,0c-3.5-0.6-5.7-2.2-9.9-6.5C572.9,163.7,576.6,167.2,579.6,167.1z"/>
			</g>
			<path class="st1" d="M622.6,136.4c-3,5.5-1.5,4.5-1.8,6.4c0,0.7,0.1,1.1,0.1,1.1s-6.1,25.3-28.8,23.7c-0.2,0-0.4,0-0.7,0
				c-0.9,0-1.7,0-2.5,0c-3.9,0-6.6-0.1-8.8-0.4c-0.2,0-0.3,0-0.5,0c-3,0.1-6.7-3.4-9.4-6.5c-1-1-2.1-2.2-3.4-3.6
				c-0.2-0.2-0.3-0.4-0.5-0.5c0.1-0.2,0.2-0.3,0.4-0.4l-4.7,5.4l2.1,5l1,0.3c0,0,0.5,2.6,1.1,2.7c0.6,0.2,4.2,0.2,4.2,0.2
				s0.5,1.4,0.8,2.1c0.3,0.6,5-0.5,5-0.5l0.5,1.4l1.1-0.3l2.9-0.5c0,0,1.1,1.9,2.6,1.9c1.4,0,3.1-1.7,3.1-1.7s1.9,1.9,2.9,2.1
				c1,0.2,1.8-2.3,1.8-2.3s1.2-0.5,2.1-0.5c1,0,2,1.1,2,1.1s1.7,1.2,3.4,1.2c1.8,0,3.4-2.7,5-2.7s2.9,1.9,6.9,1.1
				c4.2-2.2,7.6-10.3,8.7-15.3c1.1-5,7-19.9,7-19.9l-2.6-1.7c-0.1,0.1-0.2,0.2-0.3,0.3C622.9,135.9,622.8,136.2,622.6,136.4z"/>
			<path class="st8" d="M629.5,79c0.3-25.6-7-29.1-16.9-40.3c-15-7-25.3-3.5-38.7-2.9C559.8,38.4,545.4,56,545.4,56l-0.6,8
				c0,0-1.6,5.8-2.2,10.6c-0.6,4.8,1.6,2.9-1,9.9l-2.9,12.5l0.2,0.2c0.9-3.1,2.1-5.9,3.7-7.1c4.3,6,0.9,20.5,29.8-0.9
				c1.7,0.9,1.7,0.9,1.7,0.9s-3.4,23.9,7.7,35c5.1,4.3,3.4,13.6,3.4,13.6s-2.6,7.7-8.5,8.5c-3.2,0.5-6.6,4.8-9.9,8.9
				c-0.1,0.2-0.2,0.3-0.4,0.4c0.2,0.2,0.3,0.4,0.5,0.5c1.3,1.4,2.4,2.5,3.4,3.6c4.2,4.3,6.4,5.9,9.9,6.5c2.2,0.4,4.8,0.4,8.8,0.4
				c0.8,0,1.6,0,2.5,0c0.2,0,0.4,0,0.7,0c22.7,1.6,28.8-23.7,28.8-23.7s-0.1-0.4-0.1-1.1c0-1.3,0.3-3.6,1.8-6.4
				c0.1-0.3,0.3-0.6,0.5-0.9c0.1-0.1,0.2-0.2,0.3-0.3c9.9-7.3,12.5-15.2,14-26.3C639.1,94.3,635.9,87.3,629.5,79z"/>
		</g>
		<path class="st5" d="M530.6,168.4c-1.7,0.4-0.4-6.4-1.7-7.2c-1.3-0.9,3-8.5-4.3-6.8c-7.2,1.7-11.5,12.8-11.5,12.8l-3.8,2.1
			c1.7,0.4,8.5,6,13.6,6.8c4.7,0.8,5.8-4.2,12.5-6.3l-0.6-1.8C534.9,168,532.3,168,530.6,168.4z"/>
		<path class="st1" d="M576.6,147.1c6-0.9,8.5-8.5,8.5-8.5s1.7-9.4-3.4-13.6c-11.1-11.1-7.7-35-7.7-35s0,0-1.7-0.9
			c-29,21.3-25.6,6.8-29.8,0.9c-1.5,1.2-2.8,4.1-3.7,7.1c-0.1,0.2-0.1,0.4-0.2,0.6c-1.5,5.2-2.1,11-2.1,11c0,6.4-0.9,20-0.9,20
			s-28.6,31.1-31.1,33.7c-2.6,2.6,3,6.4,4.7,6.8l3.8-2.1c0,0,4.3-11.1,11.5-12.8c7.2-1.7,3,6,4.3,6.8c1.3,0.9,0,7.7,1.7,7.2
			c1.7-0.4,4.3-0.4,4.3-0.4l0.6,1.8c0.6-0.2,1.2-0.4,2-0.5c8.5-1.7,16.2-5.1,21.3-6c2.3-0.4,4.9-3.5,7.6-6.8
			c0.1-0.2,0.2-0.3,0.4-0.4C570,151.9,573.4,147.5,576.6,147.1z"/>
		<path class="st9" d="M576.6,147.1c6-0.9,8.5-8.5,8.5-8.5s1.7-9.4-3.4-13.6c-11.1-11.1-7.7-35-7.7-35s0,0-1.7-0.9
			c-29,21.3-25.6,6.8-29.8,0.9c-1.5,1.2-2.8,4.1-3.7,7.1c-0.1,0.2-0.1,0.4-0.2,0.6c-1.5,5.2-2.1,11-2.1,11c0,6.4-0.9,20-0.9,20
			s-28.6,31.1-31.1,33.7c-2.6,2.6,3,6.4,4.7,6.8l3.8-2.1c0,0,4.3-11.1,11.5-12.8c7.2-1.7,3,6,4.3,6.8c1.3,0.9,0,7.7,1.7,7.2
			c1.7-0.4,4.3-0.4,4.3-0.4l0.6,1.8c0.6-0.2,1.2-0.4,2-0.5c8.5-1.7,16.2-5.1,21.3-6c2.3-0.4,4.9-3.5,7.6-6.8
			c0.1-0.2,0.2-0.3,0.4-0.4C570,151.9,573.4,147.5,576.6,147.1z"/>
	</g>
	<path class="st10" d="M491.4,504.4c0,0,17.1,29.8,17.1,35.8c0,6,0.9,29,0.9,29l3.4,1.7l-1.7,50.3l7.7,3.4l-1.7,10.2
		c0,0,15.3,11.9,16.2,15.3c1.7-15.3-1.7-67.4-1.7-67.4l0.9-18.8l-14.5-24.7l-5.1-12.8l0.9-11.1"/>
	<path class="st11" d="M562.1,116.4c0,0-9.8-0.2-5.1,6.2C559.4,123.4,563.9,125.6,562.1,116.4z"/>
	<g>
		<path class="st5" d="M607.4,63c0,0-0.1,0.3-0.2,0.6c0.1,0.5,0.1,0.9,0,1.4c-0.4,1.6-1.9,2.5-3.3,2.2c-1.4-0.4-2.3-1.9-1.9-3.5
			c0.1-0.4,0.3-0.8,0.6-1.1c0-0.1,0-0.2,0-0.2s-5.4,1.9-5.4,8.6c0,6.7,0,8.3,2.6,10.6c4.8,0.3,7.4-1,8.3-8.6
			C609,66.2,607.4,63,607.4,63z"/>
		<path class="st1" d="M603.9,67.2c1.4,0.4,2.9-0.6,3.3-2.2c0.1-0.5,0.1-1,0-1.4c-0.2-1-0.9-1.8-1.9-2.1c-1-0.3-2.1,0.2-2.8,1
			c-0.2,0.3-0.4,0.7-0.6,1.1C601.6,65.3,602.5,66.8,603.9,67.2z"/>
	</g>
</g>
<path class="st12" d="M1440.4,635.1c-1.7-1.7-3.5-1.2-5.5,1.5c-20.4,31.1-49.6,54.4-87.4,69.8c-13.1,5.4-24.6,8-34.7,8
	c-9,0-15.7-2.3-20.1-7c-4.4-4.7-6.5-9.6-6.5-14.8c0-5.2,0.8-10.5,2.5-15.8c5.4-17.4,16.7-35.2,34.2-53.5
	c17.4-18.2,34-31.1,49.7-38.4c7.4-3.7,13.2-5.5,17.6-5.5c5.4,0,8,2.8,8,8.3c0,5.5-2.2,11.3-6.5,17.3c-10.4,12.7-26.8,25.1-49.2,37.2
	c-12.1,6.7-21.9,10.4-29.6,11.1c-0.7,0-1.6,0.2-2.8,0.5c-1.2,0.3-1.6,1.2-1.3,2.5c0.3,3,2.8,4.4,7.5,4c13.1-1,29-6.1,47.7-15.3
	c18.8-9.2,32.3-20,40.7-32.4c5-5.7,7.5-13.1,7.5-22.1c0-17.4-9-26.1-27.1-26.1c-16.1,0-37.8,10-65.3,30.1
	c-27.5,20.1-45.4,39.7-53.7,58.8c-4.4,11.1-6.5,20.6-6.5,28.6c0,8,1.8,14.9,5.5,20.6c9.7,14.4,26.6,21.6,50.7,21.6
	c28.1,0,57.1-12.7,86.9-38.2c15.4-13.1,28.1-28,38.2-44.7c1-1.3,1.5-2.5,1.5-3.5C1442.4,636.6,1441.7,635.7,1440.4,635.1z"/>
<path class="st5" d="M769.8,351.9v5.5c17.1,0,21,1.3,21,14.7V456c0,11.6-2.5,13.7-19.9,13.8c-11.2-0.4-13.4-6.1-18.7-19.5
	l-39.8-101.3h-10.1l-38.7,102.2c-3.7,9.5-9,17.4-18.4,18.6c-17.6-0.3-18.6-3.7-18.6-15.1v-86.2c0-8.8,3.1-11.1,21.7-11.1v-5.5h-45.9
	l-37.2,93.6l-34.4-93.6h-48.3v5.5c18.1,0,22.1,2.2,22.1,13.3v78.1c0,17.7-9.6,21-22.1,21v5.5h53.4v-5.5c-18.8,0-24.3-7.7-24.3-20.3
	v-89.1h1.8l42.2,114.9h4.6l45.5-114.9h1.3v94.3c0,11.6-1.8,15.1-24.3,15.1v5.5H645h3.3h34.3v-5.5c-5.9,0-13.6-1.5-13.6-10.3
	c0-3.9,2-10.9,3.9-16.2l5-13.6h45.7l7.2,18.4c2.6,6.6,3.7,11.6,3.7,14c0,7.4-7.6,7.7-13.4,7.7v5.5h49l0,0h18.1
	c1.1-1,2.3-2.1,3.4-3.1c5.5-4.9,11.2-9.6,16.9-14c0.7-0.5,1.4-1.1,2.1-1.6c0-0.5,0-1,0-1.6V372c0-12.9,3.7-14.6,19.5-14.6v-5.5
	H769.8z M680.3,422.6l19.9-53l20.6,53H680.3z"/>
<g>
	<polygon class="st3" points="1037.4,422.6 1077.9,422.6 1057.3,369.6 	"/>
	<path class="st3" d="M1210.9,383.2c0-20.3-9.6-25.8-29.3-25.8c-13.3,0-15.3,5.3-15.3,14.6v39.2h6.8
		C1201.7,411.2,1210.9,404.2,1210.9,383.2z"/>
</g>
<path class="st5" d="M1310.3,351.9h-58.2v5.5c16.8,0,20.3,1.5,20.3,11.1V458c0,9.3-3,11.5-16.9,11.8v0c-4.4,0-10.1-2.4-15.7-8.4
	l-41.1-46c8.3-1.7,34.6-7,34.6-31.5c0-17.1-14.4-31.9-46.2-31.9h-58.8v5.5c12.3,0,18.4,1.1,18.4,11.4v88.8c0,9.4-5.6,12.1-18.9,12.1
	c-11.1-0.4-13.4-6.1-18.7-19.5l-39.8-101.3h-10.1l-38.7,102.2c-3.7,9.6-9,17.5-18.6,18.6v5.5h37.6v-5.5c-5.9,0-13.6-1.5-13.6-10.3
	c0-3.9,2-10.9,3.9-16.2l5-13.6h45.7l7.2,18.4c2.6,6.6,3.7,11.6,3.7,14c0,7.4-7.6,7.7-13.4,7.7v5.5h49.5h0.6h57.5v-5.5
	c-11.4,0-19.2-2.2-19.2-12v-40.3h12.2l47.5,57.8h26.2l0,0h68.1c33.9,0,60.8-23.2,60.8-58C1381.1,374.6,1351.2,351.9,1310.3,351.9z
	 M1037.4,422.6l19.9-53l20.6,53H1037.4z M1173.1,411.2h-6.8V372c0-9.2,2-14.6,15.3-14.6c19.7,0,29.3,5.5,29.3,25.8
	C1210.9,404.2,1201.7,411.2,1173.1,411.2z M1311.1,469.8c-13.6,0-19.2-3.5-19.2-14.4v-83.8c0-10.5,2.9-14.2,18.4-14.2
	c39.4,0,49.4,20.6,49.4,56.5C1359.7,454.7,1347.6,469.8,1311.1,469.8z"/>
<path class="st5" d="M1390.3,440.3c7.9,18.1,17.7,31.7,39,31.7c18.1,0,28-11.8,28-24.1c0-36.5-71.5-19.2-71.5-67.8
	c0-16.9,11.8-31.1,33.5-31.1c14,0,24.1,6.6,29.8,6.6c3.9,0,4.8-2.4,5.5-4.1h3.7l3.7,28.7l-3.3,0.7c-11.1-18.2-26.5-26.5-38.7-26.5
	c-12.9,0-23.9,7.6-23.9,20.6c0,33.2,71.5,16.2,71.5,63.7c0,18.2-10.3,39.4-39.2,39.4c-14.4,0-22.7-7.4-30.6-7.4
	c-4.6,0-6.3,2.8-7.4,4.4h-3.1l-1.5-35H1390.3z"/>
<path class="st12" d="M1363,544.6c-4-6.7-11.6-10-22.6-10c-3.4,0-7.2,0.8-11.6,2.5c-14.7,6.4-31.8,18.6-51.2,36.7
	c-8.4,8-22.4,22.9-42.2,44.7c-9.4,10-29.1,35.3-59.3,75.9c-1-7.7,3.5-26.6,13.6-56.8c0.3-0.7,3.6-9,9.8-24.9
	c6.2-15.9,9.3-25.9,9.3-29.9c0-4-1.8-8-5.3-12.1c-3.5-4-12.3-6-26.4-6c-11.7,1-18.6,2.3-20.6,4c-2,2-3,3.7-3,5
	c0,1.3,1.1,1.8,3.3,1.3c2.2-0.5,4.3-0.8,6.3-0.8c9.4,0,14.1,8,14.1,24.1c-4.4,12.7-13.6,28.6-27.6,47.7c-0.1,0.3-0.3,0.6-0.4,0.9
	c-2.5,3-5.5,6.5-9.2,10.7c-10.6,11.5-20.2,18.5-29.1,18c-10.2-0.6-16.6-11.6-18-14.6c8.7-13.7,15.4-27.2,15.4-40.5
	c0-13.4-3.4-20.9-10-22.6c-4.4-0.7-8,0.3-10.8,3c-2.8,2.7-3.5,5.9-2,9.8c1.5,3.9,2.3,9.1,2.3,15.8c0,6.7-1.5,9.9-3.7,16.2
	c-3.5-9.7-4.5-19.4-6.4-29.7c-1.5-7.9-14.8-25.1-15.8-17.2c-2.2,16.8,3.8,49.3,13.4,65.1c-7,16.3-24.1,34.1-33.7,41.4
	c-9.7,7.4-18.7,11.1-26.9,11.1c-8.2,0-13.8-2.9-16.8-8.8c-3-5.9-4.5-11.1-4.5-15.6c0-4.5,0.3-8.6,1-12.3
	c3.7-21.8,14.7-43.4,33.2-64.8c18.4-21.4,33.5-32.1,45.2-32.1c6.7,0,10,3,10,9c0,4.4,0.8,6.9,2.5,7.5c4,0,6-3.8,6-11.6
	c0-9.4-5-15.7-15.1-19.1c-3.4-1-6.9-1.5-10.5-1.5c-14.7,0-30.3,7.2-46.7,21.6c-10.4,9-19.4,19.6-27.1,31.6c-3.8,5.7-7,11.5-9.7,17.2
	c-3.7,7.7-6.4,15.4-8.1,23c-1.5,6.7-2.3,13.4-2.3,20.1c0,18.1,5.9,30.6,17.6,37.7c6,4.3,13.6,6.5,22.6,6.5
	c16.1,0,30.6-5.5,43.7-16.6c6.4-6,23.2-21.9,28.7-32.1c5.3,8.5,14.2,15.5,26.9,15.3c8.9-0.2,17-2.6,35.3-25.4
	c7.9-9.9,13.7-16.7,16.3-21.3c4.1-6,7.6-11.3,10.3-15.8c-1.7,7.4-5.7,22.3-12.1,44.7c-6.4,22.4-9.7,34.7-10,36.9
	c-0.3,2.2-0.5,4.7-0.5,7.5c0,2.8,1.3,6.4,3.8,10.5c2.5,4.2,6.3,6.3,11.3,6.3c5,0,7.5-1.3,7.5-4c1.3-10.4,11.1-27.8,29.4-52.2
	c18.2-24.4,38.3-47.9,60-70.3c36.2-36.2,61.9-54.3,77.4-54.3c9.4,0,15.4,1.1,18.1,3.3c2.7,2.2,4.5,2.3,5.5,0.3c1-2,1.5-3.8,1.5-5.3
	C1365,547.9,1364.3,546.3,1363,544.6z"/>
<g>
	<path class="st5" d="M1004,436.6h-5.5c-2.6,5.3-7,12.4-9.8,16.3c0.2,1.6,0.3,3.2,0.3,4.9c0,5.8-0.9,11.7-2.7,17.5l10.7,0
		C999.7,460.3,1001.8,448.3,1004,436.6z"/>
	<path class="st1" d="M929,416.1v13.5c0,0,0,0,0,0L929,416.1C929,416.1,929,416.1,929,416.1z"/>
	<g>
		<path class="st5" d="M960.5,468.4c-4.9,1-10.1,1.4-15.7,1.4c-13.6,0-15.8-3.3-15.8-14.7v-25v-0.5v-13.5v0V372
			c0-12.9,3.7-14.6,19.5-14.6v-5.5h-60v5.5c17.1,0,21,1.3,21,14.7v45.5v17.8V456c0,11.8-2.6,13.8-21,13.8v5.5h69.7
			c0.2-0.5,0.5-1,0.7-1.5C959.5,472,960.1,470.2,960.5,468.4z"/>
	</g>
</g>
<path class="st5" d="M883.8,436.6c-4.8,9.9-9.8,16.9-15.2,21.9c-3.1,2.8-6.3,5-9.7,6.6c-4.4,3.2-8.9,6.6-13.3,10.2h36.7
	c1.7-9.3,3.4-18.6,5-27.8c0.6-3.6,1.3-7.2,2-10.8H883.8z"/>
<path class="st10" d="M710.5,458.7l-3.4-0.9l-0.9,21.7l7.7,19.6l9.8,48c0,0,12.4-18.2,13.3-13.9c0.9,4.3,2.6-3.4,2.6-3.4l-3.4-13.6
	l4.3-2.6v-4.3l-12.8-17.9v-4.3c0,0-17.1-45.2-17.1-46C710.5,440.4,710.5,458.7,710.5,458.7z"/>
<g>
	<path class="st12" d="M984.1,450.4c-1.2-6.7-4.2-12.8-8.9-18.2c-8.7-9.6-22.8-14.9-42-15.9v13c1.1-0.1,2.3-0.1,3.4-0.1
		c19.8,0,29.6,9.4,29.6,28.1c0,2.9-0.3,5.9-0.8,8.7c-0.1,0.4-0.2,0.8-0.3,1.2c-0.6,2.7-1.4,5.4-2.4,8.1c-1.3,3.4-3,6.8-5.1,10.1
		c-12.1,23.1-29.3,41.6-51.7,55.5c-22.4,13.9-47.1,22-73.8,24.4c-8,0.7-12.2,4-12.6,10c-0.3,4.4,3,6.2,10,5.5
		c17.4-1.7,37.9-8.3,61.5-19.8c23.6-11.6,45.1-27,64.5-46.5c13.3-13.3,22-26.4,26.2-39.2c1.9-5.9,2.9-11.8,2.9-17.6
		C984.8,455.2,984.5,452.7,984.1,450.4z"/>
</g>
<g>
	<path class="st12" d="M896.4,703.1c-36.2,15.9-69.8,23.9-101,23.9c-1.7,0-3.5,0-5.5,0c-28.1-0.3-48.4-8.5-60.8-24.6
		c-7-9-10.5-19.7-10.5-31.9c0-12.2,2.3-25.5,7-39.9c11.4-36.2,31.5-70.7,60.3-103.7c17.8-20.4,35.4-37.6,52.6-51.5
		c4.5-3.6,8.9-7,13.3-10.2c0.7-0.5,1.4-1,2.2-1.5c0.9-0.6,1.7-1.3,2.6-1.9l0.3-0.2l0.3-0.2c0.3-0.1,0.5-0.3,0.8-0.5
		c2.8-1.4,5.4-3.2,7.8-5.5c0.2-0.2,0.4-0.4,0.6-0.6c4.9-4.7,9.4-11.3,13.7-20l1.1-2.4h2.6h5.5h5l-0.9,4.9c-0.2,1.3-0.5,2.5-0.7,3.8
		c4.3-2,8.5-3.9,12.5-5.4v-18c-11.9,1.9-24,5.3-36.5,10.3c-20.5,8.5-39.8,19.6-57.9,33.4c-5.7,4.3-11.2,8.9-16.7,13.8
		c-21.1,18.8-40.5,41.6-58,68.3c-26.8,40.9-40.2,79-40.2,114.5c0,21.1,5.9,38.2,17.6,51.2c18.1,20.1,44.9,30.1,80.4,30.1
		c33.8,0,68.8-8.5,105-25.6c28.6-13.5,53.6-32.3,75.1-56.3c1.7-7.6,4.4-15.3,8.1-23C960.5,664.7,931.9,687.5,896.4,703.1z"/>
</g>
</svg>
